<svg xmlns="http://www.w3.org/2000/svg" xmlns:xlink="http://www.w3.org/1999/xlink" width= "1150.2049503470257" height="388.45" viewBox="-40 -187.225 1150.2049503470257 388.45">
<line x1="0" y1="73.775" x2="0" y2="-153.225" stroke-width="1" stroke-dasharray="none" stroke="black"/>
<line x1="1.9331820449317627" y1="73.775" x2="1.9331820449317627" y2="-153.225" stroke-width="1" stroke-dasharray="1" stroke="black"/>
<line x1="137.61143666134728" y1="153.22499999999997" x2="137.61143666134728" y2="-73.775" stroke-width="1" stroke-dasharray="none" stroke="black"/>
<line x1="139.54461870627904" y1="153.22499999999997" x2="139.54461870627904" y2="-73.775" stroke-width="1" stroke-dasharray="none" stroke="black"/>
<line x1="0" y1="73.775" x2="137.61143666134728" y2="153.22499999999997" stroke-width="1" stroke-dasharray="none" stroke="black"/>
<line x1="0" y1="-153.225" x2="137.61143666134728" y2="-73.775" stroke-width="1" stroke-dasharray="none" stroke="black"/>
<line x1="1.9331820449317627" y1="73.775" x2="139.54461870627904" y2="153.22499999999997" stroke-width="1" stroke-dasharray="1" stroke="black"/>
<line x1="1.9331820449317627" y1="-153.225" x2="139.54461870627904" y2="-73.775" stroke-width="1" stroke-dasharray="none" stroke="black"/>
<line x1="0" y1="73.775" x2="1.9331820449317627" y2="73.775" stroke-width="1" stroke-dasharray="1" stroke="black"/>
<line x1="137.61143666134728" y1="153.22499999999997" x2="139.54461870627904" y2="153.22499999999997" stroke-width="1" stroke-dasharray="none" stroke="black"/>
<line x1="0" y1="-153.225" x2="1.9331820449317627" y2="-153.225" stroke-width="1" stroke-dasharray="none" stroke="black"/>
<line x1="137.61143666134728" y1="-73.775" x2="139.54461870627904" y2="-73.775" stroke-width="1" stroke-dasharray="none" stroke="black"/>
<text x="69.77230935313952" y="-163.225" font-family="arial" font-size="14px" text-anchor="middle" fill="black">227x227x3</text><line x1="189.54461870627904" y1="17.875" x2="189.54461870627904" y2="-37.125" stroke-width="1" stroke-dasharray="none" stroke="black"/>
<line x1="205.01007506573313" y1="17.875" x2="205.01007506573313" y2="-37.125" stroke-width="1" stroke-dasharray="1" stroke="black"/>
<line x1="222.88659675197994" y1="37.125" x2="222.88659675197994" y2="-17.875" stroke-width="1" stroke-dasharray="none" stroke="black"/>
<line x1="238.35205311143403" y1="37.125" x2="238.35205311143403" y2="-17.875" stroke-width="1" stroke-dasharray="none" stroke="black"/>
<line x1="189.54461870627904" y1="17.875" x2="222.88659675197994" y2="37.125" stroke-width="1" stroke-dasharray="none" stroke="black"/>
<line x1="189.54461870627904" y1="-37.125" x2="222.88659675197994" y2="-17.875" stroke-width="1" stroke-dasharray="none" stroke="black"/>
<line x1="205.01007506573313" y1="17.875" x2="238.35205311143403" y2="37.125" stroke-width="1" stroke-dasharray="1" stroke="black"/>
<line x1="205.01007506573313" y1="-37.125" x2="238.35205311143403" y2="-17.875" stroke-width="1" stroke-dasharray="none" stroke="black"/>
<line x1="189.54461870627904" y1="17.875" x2="205.01007506573313" y2="17.875" stroke-width="1" stroke-dasharray="1" stroke="black"/>
<line x1="222.88659675197994" y1="37.125" x2="238.35205311143403" y2="37.125" stroke-width="1" stroke-dasharray="none" stroke="black"/>
<line x1="189.54461870627904" y1="-37.125" x2="205.01007506573313" y2="-37.125" stroke-width="1" stroke-dasharray="none" stroke="black"/>
<line x1="222.88659675197994" y1="-17.875" x2="238.35205311143403" y2="-17.875" stroke-width="1" stroke-dasharray="none" stroke="black"/>
<text x="213.94833590885654" y="-47.125" font-family="arial" font-size="14px" text-anchor="middle" fill="black">55x55x96</text><line x1="288.35205311143403" y1="8.775000000000002" x2="288.35205311143403" y2="-18.224999999999998" stroke-width="1" stroke-dasharray="none" stroke="black"/>
<line x1="303.8175094708881" y1="8.775000000000002" x2="303.8175094708881" y2="-18.224999999999998" stroke-width="1" stroke-dasharray="1" stroke="black"/>
<line x1="304.71993324295994" y1="18.225" x2="304.71993324295994" y2="-8.775000000000002" stroke-width="1" stroke-dasharray="none" stroke="black"/>
<line x1="320.18538960241403" y1="18.225" x2="320.18538960241403" y2="-8.775000000000002" stroke-width="1" stroke-dasharray="none" stroke="black"/>
<line x1="288.35205311143403" y1="8.775000000000002" x2="304.71993324295994" y2="18.225" stroke-width="1" stroke-dasharray="none" stroke="black"/>
<line x1="288.35205311143403" y1="-18.224999999999998" x2="304.71993324295994" y2="-8.775000000000002" stroke-width="1" stroke-dasharray="none" stroke="black"/>
<line x1="303.8175094708881" y1="8.775000000000002" x2="320.18538960241403" y2="18.225" stroke-width="1" stroke-dasharray="1" stroke="black"/>
<line x1="303.8175094708881" y1="-18.224999999999998" x2="320.18538960241403" y2="-8.775000000000002" stroke-width="1" stroke-dasharray="none" stroke="black"/>
<line x1="288.35205311143403" y1="8.775000000000002" x2="303.8175094708881" y2="8.775000000000002" stroke-width="1" stroke-dasharray="1" stroke="black"/>
<line x1="304.71993324295994" y1="18.225" x2="320.18538960241403" y2="18.225" stroke-width="1" stroke-dasharray="none" stroke="black"/>
<line x1="288.35205311143403" y1="-18.224999999999998" x2="303.8175094708881" y2="-18.224999999999998" stroke-width="1" stroke-dasharray="none" stroke="black"/>
<line x1="304.71993324295994" y1="-8.775000000000002" x2="320.18538960241403" y2="-8.775000000000002" stroke-width="1" stroke-dasharray="none" stroke="black"/>
<text x="304.26872135692406" y="-28.224999999999998" font-family="arial" font-size="14px" text-anchor="middle" fill="black">27x27x96</text><line x1="370.18538960241403" y1="8.775000000000002" x2="370.18538960241403" y2="-18.224999999999998" stroke-width="1" stroke-dasharray="none" stroke="black"/>
<line x1="398.04300762789" y1="8.775000000000002" x2="398.04300762789" y2="-18.224999999999998" stroke-width="1" stroke-dasharray="1" stroke="black"/>
<line x1="386.55326973393994" y1="18.225" x2="386.55326973393994" y2="-8.775000000000002" stroke-width="1" stroke-dasharray="none" stroke="black"/>
<line x1="414.4108877594159" y1="18.225" x2="414.4108877594159" y2="-8.775000000000002" stroke-width="1" stroke-dasharray="none" stroke="black"/>
<line x1="370.18538960241403" y1="8.775000000000002" x2="386.55326973393994" y2="18.225" stroke-width="1" stroke-dasharray="none" stroke="black"/>
<line x1="370.18538960241403" y1="-18.224999999999998" x2="386.55326973393994" y2="-8.775000000000002" stroke-width="1" stroke-dasharray="none" stroke="black"/>
<line x1="398.04300762789" y1="8.775000000000002" x2="414.4108877594159" y2="18.225" stroke-width="1" stroke-dasharray="1" stroke="black"/>
<line x1="398.04300762789" y1="-18.224999999999998" x2="414.4108877594159" y2="-8.775000000000002" stroke-width="1" stroke-dasharray="none" stroke="black"/>
<line x1="370.18538960241403" y1="8.775000000000002" x2="398.04300762789" y2="8.775000000000002" stroke-width="1" stroke-dasharray="1" stroke="black"/>
<line x1="386.55326973393994" y1="18.225" x2="414.4108877594159" y2="18.225" stroke-width="1" stroke-dasharray="none" stroke="black"/>
<line x1="370.18538960241403" y1="-18.224999999999998" x2="398.04300762789" y2="-18.224999999999998" stroke-width="1" stroke-dasharray="none" stroke="black"/>
<line x1="386.55326973393994" y1="-8.775000000000002" x2="414.4108877594159" y2="-8.775000000000002" stroke-width="1" stroke-dasharray="none" stroke="black"/>
<text x="392.298138680915" y="-28.224999999999998" font-family="arial" font-size="14px" text-anchor="middle" fill="black">27x27x256</text><line x1="464.4108877594159" y1="4.2250000000000005" x2="464.4108877594159" y2="-8.774999999999999" stroke-width="1" stroke-dasharray="none" stroke="black"/>
<line x1="492.2685057848919" y1="4.2250000000000005" x2="492.2685057848919" y2="-8.774999999999999" stroke-width="1" stroke-dasharray="1" stroke="black"/>
<line x1="472.2917189338543" y1="8.774999999999999" x2="472.2917189338543" y2="-4.2250000000000005" stroke-width="1" stroke-dasharray="none" stroke="black"/>
<line x1="500.1493369593303" y1="8.774999999999999" x2="500.1493369593303" y2="-4.2250000000000005" stroke-width="1" stroke-dasharray="none" stroke="black"/>
<line x1="464.4108877594159" y1="4.2250000000000005" x2="472.2917189338543" y2="8.774999999999999" stroke-width="1" stroke-dasharray="none" stroke="black"/>
<line x1="464.4108877594159" y1="-8.774999999999999" x2="472.2917189338543" y2="-4.2250000000000005" stroke-width="1" stroke-dasharray="none" stroke="black"/>
<line x1="492.2685057848919" y1="4.2250000000000005" x2="500.1493369593303" y2="8.774999999999999" stroke-width="1" stroke-dasharray="1" stroke="black"/>
<line x1="492.2685057848919" y1="-8.774999999999999" x2="500.1493369593303" y2="-4.2250000000000005" stroke-width="1" stroke-dasharray="none" stroke="black"/>
<line x1="464.4108877594159" y1="4.2250000000000005" x2="492.2685057848919" y2="4.2250000000000005" stroke-width="1" stroke-dasharray="1" stroke="black"/>
<line x1="472.2917189338543" y1="8.774999999999999" x2="500.1493369593303" y2="8.774999999999999" stroke-width="1" stroke-dasharray="none" stroke="black"/>
<line x1="464.4108877594159" y1="-8.774999999999999" x2="492.2685057848919" y2="-8.774999999999999" stroke-width="1" stroke-dasharray="none" stroke="black"/>
<line x1="472.2917189338543" y1="-4.2250000000000005" x2="500.1493369593303" y2="-4.2250000000000005" stroke-width="1" stroke-dasharray="none" stroke="black"/>
<text x="482.2801123593731" y="-18.775" font-family="arial" font-size="14px" text-anchor="middle" fill="black">13x13x256</text><line x1="550.1493369593303" y1="4.2250000000000005" x2="550.1493369593303" y2="-8.774999999999999" stroke-width="1" stroke-dasharray="none" stroke="black"/>
<line x1="585.679625518097" y1="4.2250000000000005" x2="585.679625518097" y2="-8.774999999999999" stroke-width="1" stroke-dasharray="1" stroke="black"/>
<line x1="558.0301681337687" y1="8.774999999999999" x2="558.0301681337687" y2="-4.2250000000000005" stroke-width="1" stroke-dasharray="none" stroke="black"/>
<line x1="593.5604566925354" y1="8.774999999999999" x2="593.5604566925354" y2="-4.2250000000000005" stroke-width="1" stroke-dasharray="none" stroke="black"/>
<line x1="550.1493369593303" y1="4.2250000000000005" x2="558.0301681337687" y2="8.774999999999999" stroke-width="1" stroke-dasharray="none" stroke="black"/>
<line x1="550.1493369593303" y1="-8.774999999999999" x2="558.0301681337687" y2="-4.2250000000000005" stroke-width="1" stroke-dasharray="none" stroke="black"/>
<line x1="585.679625518097" y1="4.2250000000000005" x2="593.5604566925354" y2="8.774999999999999" stroke-width="1" stroke-dasharray="1" stroke="black"/>
<line x1="585.679625518097" y1="-8.774999999999999" x2="593.5604566925354" y2="-4.2250000000000005" stroke-width="1" stroke-dasharray="none" stroke="black"/>
<line x1="550.1493369593303" y1="4.2250000000000005" x2="585.679625518097" y2="4.2250000000000005" stroke-width="1" stroke-dasharray="1" stroke="black"/>
<line x1="558.0301681337687" y1="8.774999999999999" x2="593.5604566925354" y2="8.774999999999999" stroke-width="1" stroke-dasharray="none" stroke="black"/>
<line x1="550.1493369593303" y1="-8.774999999999999" x2="585.679625518097" y2="-8.774999999999999" stroke-width="1" stroke-dasharray="none" stroke="black"/>
<line x1="558.0301681337687" y1="-4.2250000000000005" x2="593.5604566925354" y2="-4.2250000000000005" stroke-width="1" stroke-dasharray="none" stroke="black"/>
<text x="571.8548968259329" y="-18.775" font-family="arial" font-size="14px" text-anchor="middle" fill="black">13x13x384</text><line x1="643.5604566925355" y1="4.2250000000000005" x2="643.5604566925355" y2="-8.774999999999999" stroke-width="1" stroke-dasharray="none" stroke="black"/>
<line x1="679.0907452513022" y1="4.2250000000000005" x2="679.0907452513022" y2="-8.774999999999999" stroke-width="1" stroke-dasharray="1" stroke="black"/>
<line x1="651.4412878669739" y1="8.774999999999999" x2="651.4412878669739" y2="-4.2250000000000005" stroke-width="1" stroke-dasharray="none" stroke="black"/>
<line x1="686.9715764257405" y1="8.774999999999999" x2="686.9715764257405" y2="-4.2250000000000005" stroke-width="1" stroke-dasharray="none" stroke="black"/>
<line x1="643.5604566925355" y1="4.2250000000000005" x2="651.4412878669739" y2="8.774999999999999" stroke-width="1" stroke-dasharray="none" stroke="black"/>
<line x1="643.5604566925355" y1="-8.774999999999999" x2="651.4412878669739" y2="-4.2250000000000005" stroke-width="1" stroke-dasharray="none" stroke="black"/>
<line x1="679.0907452513022" y1="4.2250000000000005" x2="686.9715764257405" y2="8.774999999999999" stroke-width="1" stroke-dasharray="1" stroke="black"/>
<line x1="679.0907452513022" y1="-8.774999999999999" x2="686.9715764257405" y2="-4.2250000000000005" stroke-width="1" stroke-dasharray="none" stroke="black"/>
<line x1="643.5604566925355" y1="4.2250000000000005" x2="679.0907452513022" y2="4.2250000000000005" stroke-width="1" stroke-dasharray="1" stroke="black"/>
<line x1="651.4412878669739" y1="8.774999999999999" x2="686.9715764257405" y2="8.774999999999999" stroke-width="1" stroke-dasharray="none" stroke="black"/>
<line x1="643.5604566925355" y1="-8.774999999999999" x2="679.0907452513022" y2="-8.774999999999999" stroke-width="1" stroke-dasharray="none" stroke="black"/>
<line x1="651.4412878669739" y1="-4.2250000000000005" x2="686.9715764257405" y2="-4.2250000000000005" stroke-width="1" stroke-dasharray="none" stroke="black"/>
<text x="665.266016559138" y="-18.775" font-family="arial" font-size="14px" text-anchor="middle" fill="black">13x13x384</text><line x1="736.9715764257406" y1="4.2250000000000005" x2="736.9715764257406" y2="-8.774999999999999" stroke-width="1" stroke-dasharray="none" stroke="black"/>
<line x1="764.8291944512166" y1="4.2250000000000005" x2="764.8291944512166" y2="-8.774999999999999" stroke-width="1" stroke-dasharray="1" stroke="black"/>
<line x1="744.852407600179" y1="8.774999999999999" x2="744.852407600179" y2="-4.2250000000000005" stroke-width="1" stroke-dasharray="none" stroke="black"/>
<line x1="772.710025625655" y1="8.774999999999999" x2="772.710025625655" y2="-4.2250000000000005" stroke-width="1" stroke-dasharray="none" stroke="black"/>
<line x1="736.9715764257406" y1="4.2250000000000005" x2="744.852407600179" y2="8.774999999999999" stroke-width="1" stroke-dasharray="none" stroke="black"/>
<line x1="736.9715764257406" y1="-8.774999999999999" x2="744.852407600179" y2="-4.2250000000000005" stroke-width="1" stroke-dasharray="none" stroke="black"/>
<line x1="764.8291944512166" y1="4.2250000000000005" x2="772.710025625655" y2="8.774999999999999" stroke-width="1" stroke-dasharray="1" stroke="black"/>
<line x1="764.8291944512166" y1="-8.774999999999999" x2="772.710025625655" y2="-4.2250000000000005" stroke-width="1" stroke-dasharray="none" stroke="black"/>
<line x1="736.9715764257406" y1="4.2250000000000005" x2="764.8291944512166" y2="4.2250000000000005" stroke-width="1" stroke-dasharray="1" stroke="black"/>
<line x1="744.852407600179" y1="8.774999999999999" x2="772.710025625655" y2="8.774999999999999" stroke-width="1" stroke-dasharray="none" stroke="black"/>
<line x1="736.9715764257406" y1="-8.774999999999999" x2="764.8291944512166" y2="-8.774999999999999" stroke-width="1" stroke-dasharray="none" stroke="black"/>
<line x1="744.852407600179" y1="-4.2250000000000005" x2="772.710025625655" y2="-4.2250000000000005" stroke-width="1" stroke-dasharray="none" stroke="black"/>
<text x="754.8408010256978" y="-18.775" font-family="arial" font-size="14px" text-anchor="middle" fill="black">13x13x256</text><line x1="822.710025625655" y1="1.9500000000000004" x2="822.710025625655" y2="-4.05" stroke-width="1" stroke-dasharray="none" stroke="black"/>
<line x1="850.567643651131" y1="1.9500000000000004" x2="850.567643651131" y2="-4.05" stroke-width="1" stroke-dasharray="1" stroke="black"/>
<line x1="826.3473323215496" y1="4.05" x2="826.3473323215496" y2="-1.9500000000000004" stroke-width="1" stroke-dasharray="none" stroke="black"/>
<line x1="854.2049503470256" y1="4.05" x2="854.2049503470256" y2="-1.9500000000000004" stroke-width="1" stroke-dasharray="none" stroke="black"/>
<line x1="822.710025625655" y1="1.9500000000000004" x2="826.3473323215496" y2="4.05" stroke-width="1" stroke-dasharray="none" stroke="black"/>
<line x1="822.710025625655" y1="-4.05" x2="826.3473323215496" y2="-1.9500000000000004" stroke-width="1" stroke-dasharray="none" stroke="black"/>
<line x1="850.567643651131" y1="1.9500000000000004" x2="854.2049503470256" y2="4.05" stroke-width="1" stroke-dasharray="1" stroke="black"/>
<line x1="850.567643651131" y1="-4.05" x2="854.2049503470256" y2="-1.9500000000000004" stroke-width="1" stroke-dasharray="none" stroke="black"/>
<line x1="822.710025625655" y1="1.9500000000000004" x2="850.567643651131" y2="1.9500000000000004" stroke-width="1" stroke-dasharray="1" stroke="black"/>
<line x1="826.3473323215496" y1="4.05" x2="854.2049503470256" y2="4.05" stroke-width="1" stroke-dasharray="none" stroke="black"/>
<line x1="822.710025625655" y1="-4.05" x2="850.567643651131" y2="-4.05" stroke-width="1" stroke-dasharray="none" stroke="black"/>
<line x1="826.3473323215496" y1="-1.9500000000000004" x2="854.2049503470256" y2="-1.9500000000000004" stroke-width="1" stroke-dasharray="none" stroke="black"/>
<text x="838.4574879863403" y="-14.05" font-family="arial" font-size="14px" text-anchor="middle" fill="black">6x6x256</text><line x1="904.2049503470256" y1="-119.59017020308964" x2="904.2049503470256" y2="119.59017020308964" stroke-width="1" stroke-dasharray="none" stroke="black"/>
<line x1="904.2049503470256" y1="119.59017020308964" x2="908.2049503470256" y2="119.59017020308964" stroke-width="1" stroke-dasharray="none" stroke="black"/>
<line x1="908.2049503470256" y1="119.59017020308964" x2="908.2049503470256" y2="-119.59017020308964" stroke-width="1" stroke-dasharray="none" stroke="black"/>
<line x1="908.2049503470256" y1="-119.59017020308964" x2="904.2049503470256" y2="-119.59017020308964" stroke-width="1" stroke-dasharray="none" stroke="black"/>
<text x="906.2049503470256" y="-129.59017020308966" font-family="arial" font-size="14px" text-anchor="middle" fill="black">9216</text><line x1="958.2049503470256" y1="-73.51669471981023" x2="958.2049503470256" y2="73.51669471981023" stroke-width="1" stroke-dasharray="none" stroke="black"/>
<line x1="958.2049503470256" y1="73.51669471981023" x2="962.2049503470256" y2="73.51669471981023" stroke-width="1" stroke-dasharray="none" stroke="black"/>
<line x1="962.2049503470256" y1="73.51669471981023" x2="962.2049503470256" y2="-73.51669471981023" stroke-width="1" stroke-dasharray="none" stroke="black"/>
<line x1="962.2049503470256" y1="-73.51669471981023" x2="958.2049503470256" y2="-73.51669471981023" stroke-width="1" stroke-dasharray="none" stroke="black"/>
<text x="960.2049503470256" y="-83.51669471981023" font-family="arial" font-size="14px" text-anchor="middle" fill="black">4096</text><line x1="1012.2049503470256" y1="-73.51669471981023" x2="1012.2049503470256" y2="73.51669471981023" stroke-width="1" stroke-dasharray="none" stroke="black"/>
<line x1="1012.2049503470256" y1="73.51669471981023" x2="1016.2049503470256" y2="73.51669471981023" stroke-width="1" stroke-dasharray="none" stroke="black"/>
<line x1="1016.2049503470256" y1="73.51669471981023" x2="1016.2049503470256" y2="-73.51669471981023" stroke-width="1" stroke-dasharray="none" stroke="black"/>
<line x1="1016.2049503470256" y1="-73.51669471981023" x2="1012.2049503470256" y2="-73.51669471981023" stroke-width="1" stroke-dasharray="none" stroke="black"/>
<text x="1014.2049503470256" y="-83.51669471981023" font-family="arial" font-size="14px" text-anchor="middle" fill="black">4096</text><line x1="1066.2049503470257" y1="-31.547867224009657" x2="1066.2049503470257" y2="31.547867224009657" stroke-width="1" stroke-dasharray="none" stroke="black"/>
<line x1="1066.2049503470257" y1="31.547867224009657" x2="1070.2049503470257" y2="31.547867224009657" stroke-width="1" stroke-dasharray="none" stroke="black"/>
<line x1="1070.2049503470257" y1="31.547867224009657" x2="1070.2049503470257" y2="-31.547867224009657" stroke-width="1" stroke-dasharray="none" stroke="black"/>
<line x1="1070.2049503470257" y1="-31.547867224009657" x2="1066.2049503470257" y2="-31.547867224009657" stroke-width="1" stroke-dasharray="none" stroke="black"/>
<text x="1068.2049503470257" y="-41.54786722400966" font-family="arial" font-size="14px" text-anchor="middle" fill="black">1000</text><line x1="68.80571833067364" y1="3.575" x2="68.80571833067364" y2="-7.425" stroke-width="1" stroke-dasharray="none" stroke="blue"/>
<line x1="70.73890037560541" y1="3.575" x2="70.73890037560541" y2="-7.425" stroke-width="1" stroke-dasharray="1" stroke="blue"/>
<line x1="75.47411393981382" y1="7.424999999999999" x2="75.47411393981382" y2="-3.575" stroke-width="1" stroke-dasharray="none" stroke="blue"/>
<line x1="77.40729598474559" y1="7.424999999999999" x2="77.40729598474559" y2="-3.575" stroke-width="1" stroke-dasharray="none" stroke="blue"/>
<line x1="68.80571833067364" y1="3.575" x2="75.47411393981382" y2="7.424999999999999" stroke-width="1" stroke-dasharray="none" stroke="blue"/>
<line x1="68.80571833067364" y1="-7.425" x2="75.47411393981382" y2="-3.575" stroke-width="1" stroke-dasharray="none" stroke="blue"/>
<line x1="70.73890037560541" y1="3.575" x2="77.40729598474559" y2="7.424999999999999" stroke-width="1" stroke-dasharray="1" stroke="blue"/>
<line x1="70.73890037560541" y1="-7.425" x2="77.40729598474559" y2="-3.575" stroke-width="1" stroke-dasharray="none" stroke="blue"/>
<line x1="68.80571833067364" y1="3.575" x2="70.73890037560541" y2="3.575" stroke-width="1" stroke-dasharray="1" stroke="blue"/>
<line x1="75.47411393981382" y1="7.424999999999999" x2="77.40729598474559" y2="7.424999999999999" stroke-width="1" stroke-dasharray="none" stroke="blue"/>
<line x1="68.80571833067364" y1="-7.425" x2="70.73890037560541" y2="-7.425" stroke-width="1" stroke-dasharray="none" stroke="blue"/>
<line x1="75.47411393981382" y1="-3.575" x2="77.40729598474559" y2="-3.575" stroke-width="1" stroke-dasharray="none" stroke="blue"/>
<line x1="70.73890037560541" y1="-7.424999999999999" x2="197.88011321770426" y2="-18.5625" stroke-width="1" stroke-dasharray="none" stroke="blue"/>
<line x1="77.40729598474559" y1="7.425" x2="197.88011321770426" y2="-18.5625" stroke-width="1" stroke-dasharray="none" stroke="blue"/>
<text x="164.54461870627904" y="177.225" font-family="arial" font-size="14px" text-anchor="middle" fill="black">conv11x11, 96</text><text x="164.54461870627904" y="191.225" font-family="arial" font-size="14px" text-anchor="middle" fill="black">stride (4, 4)</text><line x1="206.2156077291295" y1="0.9750000000000002" x2="206.2156077291295" y2="-2.025" stroke-width="1" stroke-dasharray="none" stroke="blue"/>
<line x1="221.68106408858358" y1="0.9750000000000002" x2="221.68106408858358" y2="-2.025" stroke-width="1" stroke-dasharray="1" stroke="blue"/>
<line x1="208.03426107707682" y1="2.025" x2="208.03426107707682" y2="-0.9750000000000002" stroke-width="1" stroke-dasharray="none" stroke="blue"/>
<line x1="223.49971743653091" y1="2.025" x2="223.49971743653091" y2="-0.9750000000000002" stroke-width="1" stroke-dasharray="none" stroke="blue"/>
<line x1="206.2156077291295" y1="0.9750000000000002" x2="208.03426107707682" y2="2.025" stroke-width="1" stroke-dasharray="none" stroke="blue"/>
<line x1="206.2156077291295" y1="-2.025" x2="208.03426107707682" y2="-0.9750000000000002" stroke-width="1" stroke-dasharray="none" stroke="blue"/>
<line x1="221.68106408858358" y1="0.9750000000000002" x2="223.49971743653091" y2="2.025" stroke-width="1" stroke-dasharray="1" stroke="blue"/>
<line x1="221.68106408858358" y1="-2.025" x2="223.49971743653091" y2="-0.9750000000000002" stroke-width="1" stroke-dasharray="none" stroke="blue"/>
<line x1="206.2156077291295" y1="0.9750000000000002" x2="221.68106408858358" y2="0.9750000000000002" stroke-width="1" stroke-dasharray="1" stroke="blue"/>
<line x1="208.03426107707682" y1="2.025" x2="223.49971743653091" y2="2.025" stroke-width="1" stroke-dasharray="none" stroke="blue"/>
<line x1="206.2156077291295" y1="-2.025" x2="221.68106408858358" y2="-2.025" stroke-width="1" stroke-dasharray="none" stroke="blue"/>
<line x1="208.03426107707682" y1="-0.9750000000000002" x2="223.49971743653091" y2="-0.9750000000000002" stroke-width="1" stroke-dasharray="none" stroke="blue"/>
<line x1="221.68106408858358" y1="-2.025" x2="292.4440231443155" y2="-9.112499999999999" stroke-width="1" stroke-dasharray="none" stroke="blue"/>
<line x1="223.49971743653091" y1="2.025" x2="292.4440231443155" y2="-9.112499999999999" stroke-width="1" stroke-dasharray="none" stroke="blue"/>
<text x="263.35205311143403" y="61.125" font-family="arial" font-size="14px" text-anchor="middle" fill="black">maxpool3x3</text><text x="263.35205311143403" y="75.125" font-family="arial" font-size="14px" text-anchor="middle" fill="black">stride (2, 2)</text><line x1="296.535993177197" y1="1.625" x2="296.535993177197" y2="-3.375" stroke-width="1" stroke-dasharray="none" stroke="blue"/>
<line x1="312.0014495366511" y1="1.625" x2="312.0014495366511" y2="-3.375" stroke-width="1" stroke-dasharray="1" stroke="blue"/>
<line x1="299.5670820904425" y1="3.375" x2="299.5670820904425" y2="-1.625" stroke-width="1" stroke-dasharray="none" stroke="blue"/>
<line x1="315.0325384498966" y1="3.375" x2="315.0325384498966" y2="-1.625" stroke-width="1" stroke-dasharray="none" stroke="blue"/>
<line x1="296.535993177197" y1="1.625" x2="299.5670820904425" y2="3.375" stroke-width="1" stroke-dasharray="none" stroke="blue"/>
<line x1="296.535993177197" y1="-3.375" x2="299.5670820904425" y2="-1.625" stroke-width="1" stroke-dasharray="none" stroke="blue"/>
<line x1="312.0014495366511" y1="1.625" x2="315.0325384498966" y2="3.375" stroke-width="1" stroke-dasharray="1" stroke="blue"/>
<line x1="312.0014495366511" y1="-3.375" x2="315.0325384498966" y2="-1.625" stroke-width="1" stroke-dasharray="none" stroke="blue"/>
<line x1="296.535993177197" y1="1.625" x2="312.0014495366511" y2="1.625" stroke-width="1" stroke-dasharray="1" stroke="blue"/>
<line x1="299.5670820904425" y1="3.375" x2="315.0325384498966" y2="3.375" stroke-width="1" stroke-dasharray="none" stroke="blue"/>
<line x1="296.535993177197" y1="-3.375" x2="312.0014495366511" y2="-3.375" stroke-width="1" stroke-dasharray="none" stroke="blue"/>
<line x1="299.5670820904425" y1="-1.625" x2="315.0325384498966" y2="-1.625" stroke-width="1" stroke-dasharray="none" stroke="blue"/>
<line x1="312.0014495366511" y1="-3.375" x2="374.2773596352955" y2="-9.112499999999999" stroke-width="1" stroke-dasharray="none" stroke="blue"/>
<line x1="315.0325384498966" y1="3.375" x2="374.2773596352955" y2="-9.112499999999999" stroke-width="1" stroke-dasharray="none" stroke="blue"/>
<text x="345.18538960241403" y="42.224999999999994" font-family="arial" font-size="14px" text-anchor="middle" fill="black">conv5x5, 256</text><text x="345.18538960241403" y="56.224999999999994" font-family="arial" font-size="14px" text-anchor="middle" fill="black">stride (1, 1)</text><line x1="378.369329668177" y1="0.9750000000000002" x2="378.369329668177" y2="-2.025" stroke-width="1" stroke-dasharray="none" stroke="blue"/>
<line x1="406.22694769365296" y1="0.9750000000000002" x2="406.22694769365296" y2="-2.025" stroke-width="1" stroke-dasharray="1" stroke="blue"/>
<line x1="380.1879830161243" y1="2.025" x2="380.1879830161243" y2="-0.9750000000000002" stroke-width="1" stroke-dasharray="none" stroke="blue"/>
<line x1="408.04560104160026" y1="2.025" x2="408.04560104160026" y2="-0.9750000000000002" stroke-width="1" stroke-dasharray="none" stroke="blue"/>
<line x1="378.369329668177" y1="0.9750000000000002" x2="380.1879830161243" y2="2.025" stroke-width="1" stroke-dasharray="none" stroke="blue"/>
<line x1="378.369329668177" y1="-2.025" x2="380.1879830161243" y2="-0.9750000000000002" stroke-width="1" stroke-dasharray="none" stroke="blue"/>
<line x1="406.22694769365296" y1="0.9750000000000002" x2="408.04560104160026" y2="2.025" stroke-width="1" stroke-dasharray="1" stroke="blue"/>
<line x1="406.22694769365296" y1="-2.025" x2="408.04560104160026" y2="-0.9750000000000002" stroke-width="1" stroke-dasharray="none" stroke="blue"/>
<line x1="378.369329668177" y1="0.9750000000000002" x2="406.22694769365296" y2="0.9750000000000002" stroke-width="1" stroke-dasharray="1" stroke="blue"/>
<line x1="380.1879830161243" y1="2.025" x2="408.04560104160026" y2="2.025" stroke-width="1" stroke-dasharray="none" stroke="blue"/>
<line x1="378.369329668177" y1="-2.025" x2="406.22694769365296" y2="-2.025" stroke-width="1" stroke-dasharray="none" stroke="blue"/>
<line x1="380.1879830161243" y1="-0.9750000000000002" x2="408.04560104160026" y2="-0.9750000000000002" stroke-width="1" stroke-dasharray="none" stroke="blue"/>
<line x1="406.22694769365296" y1="-2.025" x2="466.3810955530255" y2="-4.387499999999999" stroke-width="1" stroke-dasharray="none" stroke="blue"/>
<line x1="408.04560104160026" y1="2.025" x2="466.3810955530255" y2="-4.387499999999999" stroke-width="1" stroke-dasharray="none" stroke="blue"/>
<text x="439.4108877594159" y="42.224999999999994" font-family="arial" font-size="14px" text-anchor="middle" fill="black">maxpool3x3</text><text x="439.4108877594159" y="56.224999999999994" font-family="arial" font-size="14px" text-anchor="middle" fill="black">stride (2, 2)</text><line x1="468.3513033466351" y1="0.9750000000000002" x2="468.3513033466351" y2="-2.025" stroke-width="1" stroke-dasharray="none" stroke="blue"/>
<line x1="496.2089213721111" y1="0.9750000000000002" x2="496.2089213721111" y2="-2.025" stroke-width="1" stroke-dasharray="1" stroke="blue"/>
<line x1="470.1699566945824" y1="2.025" x2="470.1699566945824" y2="-0.9750000000000002" stroke-width="1" stroke-dasharray="none" stroke="blue"/>
<line x1="498.0275747200584" y1="2.025" x2="498.0275747200584" y2="-0.9750000000000002" stroke-width="1" stroke-dasharray="none" stroke="blue"/>
<line x1="468.3513033466351" y1="0.9750000000000002" x2="470.1699566945824" y2="2.025" stroke-width="1" stroke-dasharray="none" stroke="blue"/>
<line x1="468.3513033466351" y1="-2.025" x2="470.1699566945824" y2="-0.9750000000000002" stroke-width="1" stroke-dasharray="none" stroke="blue"/>
<line x1="496.2089213721111" y1="0.9750000000000002" x2="498.0275747200584" y2="2.025" stroke-width="1" stroke-dasharray="1" stroke="blue"/>
<line x1="496.2089213721111" y1="-2.025" x2="498.0275747200584" y2="-0.9750000000000002" stroke-width="1" stroke-dasharray="none" stroke="blue"/>
<line x1="468.3513033466351" y1="0.9750000000000002" x2="496.2089213721111" y2="0.9750000000000002" stroke-width="1" stroke-dasharray="1" stroke="blue"/>
<line x1="470.1699566945824" y1="2.025" x2="498.0275747200584" y2="2.025" stroke-width="1" stroke-dasharray="none" stroke="blue"/>
<line x1="468.3513033466351" y1="-2.025" x2="496.2089213721111" y2="-2.025" stroke-width="1" stroke-dasharray="none" stroke="blue"/>
<line x1="470.1699566945824" y1="-0.9750000000000002" x2="498.0275747200584" y2="-0.9750000000000002" stroke-width="1" stroke-dasharray="none" stroke="blue"/>
<line x1="496.2089213721111" y1="-2.025" x2="552.1195447529399" y2="-4.387499999999999" stroke-width="1" stroke-dasharray="none" stroke="blue"/>
<line x1="498.0275747200584" y1="2.025" x2="552.1195447529399" y2="-4.387499999999999" stroke-width="1" stroke-dasharray="none" stroke="blue"/>
<text x="525.1493369593303" y="32.775" font-family="arial" font-size="14px" text-anchor="middle" fill="black">conv3x3, 384</text><text x="525.1493369593303" y="46.775" font-family="arial" font-size="14px" text-anchor="middle" fill="black">stride (1, 1)</text><line x1="554.0897525465494" y1="0.9750000000000002" x2="554.0897525465494" y2="-2.025" stroke-width="1" stroke-dasharray="none" stroke="blue"/>
<line x1="589.6200411053162" y1="0.9750000000000002" x2="589.6200411053162" y2="-2.025" stroke-width="1" stroke-dasharray="1" stroke="blue"/>
<line x1="555.9084058944968" y1="2.025" x2="555.9084058944968" y2="-0.9750000000000002" stroke-width="1" stroke-dasharray="none" stroke="blue"/>
<line x1="591.4386944532635" y1="2.025" x2="591.4386944532635" y2="-0.9750000000000002" stroke-width="1" stroke-dasharray="none" stroke="blue"/>
<line x1="554.0897525465494" y1="0.9750000000000002" x2="555.9084058944968" y2="2.025" stroke-width="1" stroke-dasharray="none" stroke="blue"/>
<line x1="554.0897525465494" y1="-2.025" x2="555.9084058944968" y2="-0.9750000000000002" stroke-width="1" stroke-dasharray="none" stroke="blue"/>
<line x1="589.6200411053162" y1="0.9750000000000002" x2="591.4386944532635" y2="2.025" stroke-width="1" stroke-dasharray="1" stroke="blue"/>
<line x1="589.6200411053162" y1="-2.025" x2="591.4386944532635" y2="-0.9750000000000002" stroke-width="1" stroke-dasharray="none" stroke="blue"/>
<line x1="554.0897525465494" y1="0.9750000000000002" x2="589.6200411053162" y2="0.9750000000000002" stroke-width="1" stroke-dasharray="1" stroke="blue"/>
<line x1="555.9084058944968" y1="2.025" x2="591.4386944532635" y2="2.025" stroke-width="1" stroke-dasharray="none" stroke="blue"/>
<line x1="554.0897525465494" y1="-2.025" x2="589.6200411053162" y2="-2.025" stroke-width="1" stroke-dasharray="none" stroke="blue"/>
<line x1="555.9084058944968" y1="-0.9750000000000002" x2="591.4386944532635" y2="-0.9750000000000002" stroke-width="1" stroke-dasharray="none" stroke="blue"/>
<line x1="589.6200411053162" y1="-2.025" x2="645.530664486145" y2="-4.387499999999999" stroke-width="1" stroke-dasharray="none" stroke="blue"/>
<line x1="591.4386944532636" y1="2.025" x2="645.530664486145" y2="-4.387499999999999" stroke-width="1" stroke-dasharray="none" stroke="blue"/>
<text x="618.5604566925355" y="32.775" font-family="arial" font-size="14px" text-anchor="middle" fill="black">conv3x3, 384</text><text x="618.5604566925355" y="46.775" font-family="arial" font-size="14px" text-anchor="middle" fill="black">stride (1, 1)</text><line x1="647.5008722797546" y1="0.9750000000000002" x2="647.5008722797546" y2="-2.025" stroke-width="1" stroke-dasharray="none" stroke="blue"/>
<line x1="683.0311608385214" y1="0.9750000000000002" x2="683.0311608385214" y2="-2.025" stroke-width="1" stroke-dasharray="1" stroke="blue"/>
<line x1="649.319525627702" y1="2.025" x2="649.319525627702" y2="-0.9750000000000002" stroke-width="1" stroke-dasharray="none" stroke="blue"/>
<line x1="684.8498141864686" y1="2.025" x2="684.8498141864686" y2="-0.9750000000000002" stroke-width="1" stroke-dasharray="none" stroke="blue"/>
<line x1="647.5008722797546" y1="0.9750000000000002" x2="649.319525627702" y2="2.025" stroke-width="1" stroke-dasharray="none" stroke="blue"/>
<line x1="647.5008722797546" y1="-2.025" x2="649.319525627702" y2="-0.9750000000000002" stroke-width="1" stroke-dasharray="none" stroke="blue"/>
<line x1="683.0311608385214" y1="0.9750000000000002" x2="684.8498141864686" y2="2.025" stroke-width="1" stroke-dasharray="1" stroke="blue"/>
<line x1="683.0311608385214" y1="-2.025" x2="684.8498141864686" y2="-0.9750000000000002" stroke-width="1" stroke-dasharray="none" stroke="blue"/>
<line x1="647.5008722797546" y1="0.9750000000000002" x2="683.0311608385214" y2="0.9750000000000002" stroke-width="1" stroke-dasharray="1" stroke="blue"/>
<line x1="649.319525627702" y1="2.025" x2="684.8498141864686" y2="2.025" stroke-width="1" stroke-dasharray="none" stroke="blue"/>
<line x1="647.5008722797546" y1="-2.025" x2="683.0311608385214" y2="-2.025" stroke-width="1" stroke-dasharray="none" stroke="blue"/>
<line x1="649.319525627702" y1="-0.9750000000000002" x2="684.8498141864686" y2="-0.9750000000000002" stroke-width="1" stroke-dasharray="none" stroke="blue"/>
<line x1="683.0311608385214" y1="-2.025" x2="738.9417842193502" y2="-4.387499999999999" stroke-width="1" stroke-dasharray="none" stroke="blue"/>
<line x1="684.8498141864687" y1="2.025" x2="738.9417842193502" y2="-4.387499999999999" stroke-width="1" stroke-dasharray="none" stroke="blue"/>
<text x="711.9715764257406" y="32.775" font-family="arial" font-size="14px" text-anchor="middle" fill="black">conv3x3, 256</text><text x="711.9715764257406" y="46.775" font-family="arial" font-size="14px" text-anchor="middle" fill="black">stride (1, 1)</text><line x1="740.9119920129598" y1="0.9750000000000002" x2="740.9119920129598" y2="-2.025" stroke-width="1" stroke-dasharray="none" stroke="blue"/>
<line x1="768.7696100384358" y1="0.9750000000000002" x2="768.7696100384358" y2="-2.025" stroke-width="1" stroke-dasharray="1" stroke="blue"/>
<line x1="742.7306453609071" y1="2.025" x2="742.7306453609071" y2="-0.9750000000000002" stroke-width="1" stroke-dasharray="none" stroke="blue"/>
<line x1="770.5882633863831" y1="2.025" x2="770.5882633863831" y2="-0.9750000000000002" stroke-width="1" stroke-dasharray="none" stroke="blue"/>
<line x1="740.9119920129598" y1="0.9750000000000002" x2="742.7306453609071" y2="2.025" stroke-width="1" stroke-dasharray="none" stroke="blue"/>
<line x1="740.9119920129598" y1="-2.025" x2="742.7306453609071" y2="-0.9750000000000002" stroke-width="1" stroke-dasharray="none" stroke="blue"/>
<line x1="768.7696100384358" y1="0.9750000000000002" x2="770.5882633863831" y2="2.025" stroke-width="1" stroke-dasharray="1" stroke="blue"/>
<line x1="768.7696100384358" y1="-2.025" x2="770.5882633863831" y2="-0.9750000000000002" stroke-width="1" stroke-dasharray="none" stroke="blue"/>
<line x1="740.9119920129598" y1="0.9750000000000002" x2="768.7696100384358" y2="0.9750000000000002" stroke-width="1" stroke-dasharray="1" stroke="blue"/>
<line x1="742.7306453609071" y1="2.025" x2="770.5882633863831" y2="2.025" stroke-width="1" stroke-dasharray="none" stroke="blue"/>
<line x1="740.9119920129598" y1="-2.025" x2="768.7696100384358" y2="-2.025" stroke-width="1" stroke-dasharray="none" stroke="blue"/>
<line x1="742.7306453609071" y1="-0.9750000000000002" x2="770.5882633863831" y2="-0.9750000000000002" stroke-width="1" stroke-dasharray="none" stroke="blue"/>
<line x1="768.7696100384358" y1="-2.025" x2="823.6193522996286" y2="-2.025" stroke-width="1" stroke-dasharray="none" stroke="blue"/>
<line x1="770.5882633863831" y1="2.025" x2="823.6193522996286" y2="-2.025" stroke-width="1" stroke-dasharray="none" stroke="blue"/>
<text x="797.710025625655" y="32.775" font-family="arial" font-size="14px" text-anchor="middle" fill="black">maxpool3x3</text><text x="797.710025625655" y="46.775" font-family="arial" font-size="14px" text-anchor="middle" fill="black">stride (2, 2)</text><text x="879.2049503470256" y="143.59017020308966" font-family="arial" font-size="14px" text-anchor="middle" fill="black">flatten</text><line x1="908.2049503470256" y1="-119.59017020308964" x2="958.2049503470256" y2="-36.758347359905116" stroke-width="1" stroke-dasharray="2" stroke="blue"/>
<line x1="908.2049503470256" y1="119.59017020308964" x2="958.2049503470256" y2="-36.758347359905116" stroke-width="1" stroke-dasharray="2" stroke="blue"/>
<text x="933.2049503470256" y="143.59017020308966" font-family="arial" font-size="14px" text-anchor="middle" fill="black">dense</text><line x1="962.2049503470256" y1="-73.51669471981023" x2="1012.2049503470256" y2="-36.758347359905116" stroke-width="1" stroke-dasharray="2" stroke="blue"/>
<line x1="962.2049503470256" y1="73.51669471981023" x2="1012.2049503470256" y2="-36.758347359905116" stroke-width="1" stroke-dasharray="2" stroke="blue"/>
<text x="987.2049503470256" y="97.51669471981023" font-family="arial" font-size="14px" text-anchor="middle" fill="black">dense</text><line x1="1016.2049503470256" y1="-73.51669471981023" x2="1066.2049503470257" y2="-15.773933612004829" stroke-width="1" stroke-dasharray="2" stroke="blue"/>
<line x1="1016.2049503470256" y1="73.51669471981023" x2="1066.2049503470257" y2="-15.773933612004829" stroke-width="1" stroke-dasharray="2" stroke="blue"/>
<text x="1041.2049503470257" y="97.51669471981023" font-family="arial" font-size="14px" text-anchor="middle" fill="black">dense</text></svg>