<svg xmlns="http://www.w3.org/2000/svg" xmlns:xlink="http://www.w3.org/1999/xlink" width= "2591.620818128097" height="518.1939369155953" viewBox="-40 -252.0969684577976 2591.620818128097 518.1939369155953">
<line x1="0" y1="72.80000000000001" x2="0" y2="-151.2" stroke-width="1" stroke-dasharray="none" stroke="black"/>
<line x1="1.9331820449317627" y1="72.80000000000001" x2="1.9331820449317627" y2="-151.2" stroke-width="1" stroke-dasharray="1" stroke="black"/>
<line x1="135.79278331339998" y1="151.2" x2="135.79278331339998" y2="-72.80000000000001" stroke-width="1" stroke-dasharray="none" stroke="black"/>
<line x1="137.72596535833173" y1="151.2" x2="137.72596535833173" y2="-72.80000000000001" stroke-width="1" stroke-dasharray="none" stroke="black"/>
<line x1="0" y1="72.80000000000001" x2="135.79278331339998" y2="151.2" stroke-width="1" stroke-dasharray="none" stroke="black"/>
<line x1="0" y1="-151.2" x2="135.79278331339998" y2="-72.80000000000001" stroke-width="1" stroke-dasharray="none" stroke="black"/>
<line x1="1.9331820449317627" y1="72.80000000000001" x2="137.72596535833173" y2="151.2" stroke-width="1" stroke-dasharray="1" stroke="black"/>
<line x1="1.9331820449317627" y1="-151.2" x2="137.72596535833173" y2="-72.80000000000001" stroke-width="1" stroke-dasharray="none" stroke="black"/>
<line x1="0" y1="72.80000000000001" x2="1.9331820449317627" y2="72.80000000000001" stroke-width="1" stroke-dasharray="1" stroke="black"/>
<line x1="135.79278331339998" y1="151.2" x2="137.72596535833173" y2="151.2" stroke-width="1" stroke-dasharray="none" stroke="black"/>
<line x1="0" y1="-151.2" x2="1.9331820449317627" y2="-151.2" stroke-width="1" stroke-dasharray="none" stroke="black"/>
<line x1="135.79278331339998" y1="-72.80000000000001" x2="137.72596535833173" y2="-72.80000000000001" stroke-width="1" stroke-dasharray="none" stroke="black"/>
<text x="68.86298267916587" y="-161.2" font-family="arial" font-size="14px" text-anchor="middle" fill="black">224x224x3</text><line x1="187.72596535833173" y1="72.80000000000001" x2="187.72596535833173" y2="-151.2" stroke-width="1" stroke-dasharray="none" stroke="black"/>
<line x1="199.85169789041493" y1="72.80000000000001" x2="199.85169789041493" y2="-151.2" stroke-width="1" stroke-dasharray="1" stroke="black"/>
<line x1="323.5187486717317" y1="151.2" x2="323.5187486717317" y2="-72.80000000000001" stroke-width="1" stroke-dasharray="none" stroke="black"/>
<line x1="335.6444812038149" y1="151.2" x2="335.6444812038149" y2="-72.80000000000001" stroke-width="1" stroke-dasharray="none" stroke="black"/>
<line x1="187.72596535833173" y1="72.80000000000001" x2="323.5187486717317" y2="151.2" stroke-width="1" stroke-dasharray="none" stroke="black"/>
<line x1="187.72596535833173" y1="-151.2" x2="323.5187486717317" y2="-72.80000000000001" stroke-width="1" stroke-dasharray="none" stroke="black"/>
<line x1="199.85169789041493" y1="72.80000000000001" x2="335.6444812038149" y2="151.2" stroke-width="1" stroke-dasharray="1" stroke="black"/>
<line x1="199.85169789041493" y1="-151.2" x2="335.6444812038149" y2="-72.80000000000001" stroke-width="1" stroke-dasharray="none" stroke="black"/>
<line x1="187.72596535833173" y1="72.80000000000001" x2="199.85169789041493" y2="72.80000000000001" stroke-width="1" stroke-dasharray="1" stroke="black"/>
<line x1="323.5187486717317" y1="151.2" x2="335.6444812038149" y2="151.2" stroke-width="1" stroke-dasharray="none" stroke="black"/>
<line x1="187.72596535833173" y1="-151.2" x2="199.85169789041493" y2="-151.2" stroke-width="1" stroke-dasharray="none" stroke="black"/>
<line x1="323.5187486717317" y1="-72.80000000000001" x2="335.6444812038149" y2="-72.80000000000001" stroke-width="1" stroke-dasharray="none" stroke="black"/>
<text x="261.6852232810733" y="-161.2" font-family="arial" font-size="14px" text-anchor="middle" fill="black">224x224x64</text><line x1="385.6444812038149" y1="72.80000000000001" x2="385.6444812038149" y2="-151.2" stroke-width="1" stroke-dasharray="none" stroke="black"/>
<line x1="397.7702137358981" y1="72.80000000000001" x2="397.7702137358981" y2="-151.2" stroke-width="1" stroke-dasharray="1" stroke="black"/>
<line x1="521.4372645172149" y1="151.2" x2="521.4372645172149" y2="-72.80000000000001" stroke-width="1" stroke-dasharray="none" stroke="black"/>
<line x1="533.562997049298" y1="151.2" x2="533.562997049298" y2="-72.80000000000001" stroke-width="1" stroke-dasharray="none" stroke="black"/>
<line x1="385.6444812038149" y1="72.80000000000001" x2="521.4372645172149" y2="151.2" stroke-width="1" stroke-dasharray="none" stroke="black"/>
<line x1="385.6444812038149" y1="-151.2" x2="521.4372645172149" y2="-72.80000000000001" stroke-width="1" stroke-dasharray="none" stroke="black"/>
<line x1="397.7702137358981" y1="72.80000000000001" x2="533.562997049298" y2="151.2" stroke-width="1" stroke-dasharray="1" stroke="black"/>
<line x1="397.7702137358981" y1="-151.2" x2="533.562997049298" y2="-72.80000000000001" stroke-width="1" stroke-dasharray="none" stroke="black"/>
<line x1="385.6444812038149" y1="72.80000000000001" x2="397.7702137358981" y2="72.80000000000001" stroke-width="1" stroke-dasharray="1" stroke="black"/>
<line x1="521.4372645172149" y1="151.2" x2="533.562997049298" y2="151.2" stroke-width="1" stroke-dasharray="none" stroke="black"/>
<line x1="385.6444812038149" y1="-151.2" x2="397.7702137358981" y2="-151.2" stroke-width="1" stroke-dasharray="none" stroke="black"/>
<line x1="521.4372645172149" y1="-72.80000000000001" x2="533.562997049298" y2="-72.80000000000001" stroke-width="1" stroke-dasharray="none" stroke="black"/>
<text x="459.60373912655643" y="-161.2" font-family="arial" font-size="14px" text-anchor="middle" fill="black">224x224x64</text><line x1="583.562997049298" y1="36.400000000000006" x2="583.562997049298" y2="-75.6" stroke-width="1" stroke-dasharray="none" stroke="black"/>
<line x1="595.6887295813812" y1="36.400000000000006" x2="595.6887295813812" y2="-75.6" stroke-width="1" stroke-dasharray="1" stroke="black"/>
<line x1="651.459388705998" y1="75.6" x2="651.459388705998" y2="-36.400000000000006" stroke-width="1" stroke-dasharray="none" stroke="black"/>
<line x1="663.5851212380812" y1="75.6" x2="663.5851212380812" y2="-36.400000000000006" stroke-width="1" stroke-dasharray="none" stroke="black"/>
<line x1="583.562997049298" y1="36.400000000000006" x2="651.459388705998" y2="75.6" stroke-width="1" stroke-dasharray="none" stroke="black"/>
<line x1="583.562997049298" y1="-75.6" x2="651.459388705998" y2="-36.400000000000006" stroke-width="1" stroke-dasharray="none" stroke="black"/>
<line x1="595.6887295813812" y1="36.400000000000006" x2="663.5851212380812" y2="75.6" stroke-width="1" stroke-dasharray="1" stroke="black"/>
<line x1="595.6887295813812" y1="-75.6" x2="663.5851212380812" y2="-36.400000000000006" stroke-width="1" stroke-dasharray="none" stroke="black"/>
<line x1="583.562997049298" y1="36.400000000000006" x2="595.6887295813812" y2="36.400000000000006" stroke-width="1" stroke-dasharray="1" stroke="black"/>
<line x1="651.459388705998" y1="75.6" x2="663.5851212380812" y2="75.6" stroke-width="1" stroke-dasharray="none" stroke="black"/>
<line x1="583.562997049298" y1="-75.6" x2="595.6887295813812" y2="-75.6" stroke-width="1" stroke-dasharray="none" stroke="black"/>
<line x1="651.459388705998" y1="-36.400000000000006" x2="663.5851212380812" y2="-36.400000000000006" stroke-width="1" stroke-dasharray="none" stroke="black"/>
<text x="623.5740591436895" y="-85.6" font-family="arial" font-size="14px" text-anchor="middle" fill="black">112x112x64</text><line x1="713.5851212380811" y1="36.400000000000006" x2="713.5851212380811" y2="-75.6" stroke-width="1" stroke-dasharray="none" stroke="black"/>
<line x1="731.9642949180337" y1="36.400000000000006" x2="731.9642949180337" y2="-75.6" stroke-width="1" stroke-dasharray="1" stroke="black"/>
<line x1="781.4815128947811" y1="75.6" x2="781.4815128947811" y2="-36.400000000000006" stroke-width="1" stroke-dasharray="none" stroke="black"/>
<line x1="799.8606865747337" y1="75.6" x2="799.8606865747337" y2="-36.400000000000006" stroke-width="1" stroke-dasharray="none" stroke="black"/>
<line x1="713.5851212380811" y1="36.400000000000006" x2="781.4815128947811" y2="75.6" stroke-width="1" stroke-dasharray="none" stroke="black"/>
<line x1="713.5851212380811" y1="-75.6" x2="781.4815128947811" y2="-36.400000000000006" stroke-width="1" stroke-dasharray="none" stroke="black"/>
<line x1="731.9642949180337" y1="36.400000000000006" x2="799.8606865747337" y2="75.6" stroke-width="1" stroke-dasharray="1" stroke="black"/>
<line x1="731.9642949180337" y1="-75.6" x2="799.8606865747337" y2="-36.400000000000006" stroke-width="1" stroke-dasharray="none" stroke="black"/>
<line x1="713.5851212380811" y1="36.400000000000006" x2="731.9642949180337" y2="36.400000000000006" stroke-width="1" stroke-dasharray="1" stroke="black"/>
<line x1="781.4815128947811" y1="75.6" x2="799.8606865747337" y2="75.6" stroke-width="1" stroke-dasharray="none" stroke="black"/>
<line x1="713.5851212380811" y1="-75.6" x2="731.9642949180337" y2="-75.6" stroke-width="1" stroke-dasharray="none" stroke="black"/>
<line x1="781.4815128947811" y1="-36.400000000000006" x2="799.8606865747337" y2="-36.400000000000006" stroke-width="1" stroke-dasharray="none" stroke="black"/>
<text x="756.7229039064074" y="-85.6" font-family="arial" font-size="14px" text-anchor="middle" fill="black">112x112x128</text><line x1="849.8606865747337" y1="36.400000000000006" x2="849.8606865747337" y2="-75.6" stroke-width="1" stroke-dasharray="none" stroke="black"/>
<line x1="868.2398602546863" y1="36.400000000000006" x2="868.2398602546863" y2="-75.6" stroke-width="1" stroke-dasharray="1" stroke="black"/>
<line x1="917.7570782314336" y1="75.6" x2="917.7570782314336" y2="-36.400000000000006" stroke-width="1" stroke-dasharray="none" stroke="black"/>
<line x1="936.1362519113862" y1="75.6" x2="936.1362519113862" y2="-36.400000000000006" stroke-width="1" stroke-dasharray="none" stroke="black"/>
<line x1="849.8606865747337" y1="36.400000000000006" x2="917.7570782314336" y2="75.6" stroke-width="1" stroke-dasharray="none" stroke="black"/>
<line x1="849.8606865747337" y1="-75.6" x2="917.7570782314336" y2="-36.400000000000006" stroke-width="1" stroke-dasharray="none" stroke="black"/>
<line x1="868.2398602546863" y1="36.400000000000006" x2="936.1362519113862" y2="75.6" stroke-width="1" stroke-dasharray="1" stroke="black"/>
<line x1="868.2398602546863" y1="-75.6" x2="936.1362519113862" y2="-36.400000000000006" stroke-width="1" stroke-dasharray="none" stroke="black"/>
<line x1="849.8606865747337" y1="36.400000000000006" x2="868.2398602546863" y2="36.400000000000006" stroke-width="1" stroke-dasharray="1" stroke="black"/>
<line x1="917.7570782314336" y1="75.6" x2="936.1362519113862" y2="75.6" stroke-width="1" stroke-dasharray="none" stroke="black"/>
<line x1="849.8606865747337" y1="-75.6" x2="868.2398602546863" y2="-75.6" stroke-width="1" stroke-dasharray="none" stroke="black"/>
<line x1="917.7570782314336" y1="-36.400000000000006" x2="936.1362519113862" y2="-36.400000000000006" stroke-width="1" stroke-dasharray="none" stroke="black"/>
<text x="892.99846924306" y="-85.6" font-family="arial" font-size="14px" text-anchor="middle" fill="black">112x112x128</text><line x1="986.1362519113862" y1="18.200000000000003" x2="986.1362519113862" y2="-37.8" stroke-width="1" stroke-dasharray="none" stroke="black"/>
<line x1="1004.5154255913388" y1="18.200000000000003" x2="1004.5154255913388" y2="-37.8" stroke-width="1" stroke-dasharray="1" stroke="black"/>
<line x1="1020.0844477397362" y1="37.8" x2="1020.0844477397362" y2="-18.200000000000003" stroke-width="1" stroke-dasharray="none" stroke="black"/>
<line x1="1038.4636214196887" y1="37.8" x2="1038.4636214196887" y2="-18.200000000000003" stroke-width="1" stroke-dasharray="none" stroke="black"/>
<line x1="986.1362519113862" y1="18.200000000000003" x2="1020.0844477397362" y2="37.8" stroke-width="1" stroke-dasharray="none" stroke="black"/>
<line x1="986.1362519113862" y1="-37.8" x2="1020.0844477397362" y2="-18.200000000000003" stroke-width="1" stroke-dasharray="none" stroke="black"/>
<line x1="1004.5154255913388" y1="18.200000000000003" x2="1038.4636214196887" y2="37.8" stroke-width="1" stroke-dasharray="1" stroke="black"/>
<line x1="1004.5154255913388" y1="-37.8" x2="1038.4636214196887" y2="-18.200000000000003" stroke-width="1" stroke-dasharray="none" stroke="black"/>
<line x1="986.1362519113862" y1="18.200000000000003" x2="1004.5154255913388" y2="18.200000000000003" stroke-width="1" stroke-dasharray="1" stroke="black"/>
<line x1="1020.0844477397362" y1="37.8" x2="1038.4636214196887" y2="37.8" stroke-width="1" stroke-dasharray="none" stroke="black"/>
<line x1="986.1362519113862" y1="-37.8" x2="1004.5154255913388" y2="-37.8" stroke-width="1" stroke-dasharray="none" stroke="black"/>
<line x1="1020.0844477397362" y1="-18.200000000000003" x2="1038.4636214196887" y2="-18.200000000000003" stroke-width="1" stroke-dasharray="none" stroke="black"/>
<text x="1012.2999366655374" y="-47.8" font-family="arial" font-size="14px" text-anchor="middle" fill="black">56x56x128</text><line x1="1088.4636214196887" y1="18.200000000000003" x2="1088.4636214196887" y2="-37.8" stroke-width="1" stroke-dasharray="none" stroke="black"/>
<line x1="1116.3212394451646" y1="18.200000000000003" x2="1116.3212394451646" y2="-37.8" stroke-width="1" stroke-dasharray="1" stroke="black"/>
<line x1="1122.4118172480387" y1="37.8" x2="1122.4118172480387" y2="-18.200000000000003" stroke-width="1" stroke-dasharray="none" stroke="black"/>
<line x1="1150.2694352735148" y1="37.8" x2="1150.2694352735148" y2="-18.200000000000003" stroke-width="1" stroke-dasharray="none" stroke="black"/>
<line x1="1088.4636214196887" y1="18.200000000000003" x2="1122.4118172480387" y2="37.8" stroke-width="1" stroke-dasharray="none" stroke="black"/>
<line x1="1088.4636214196887" y1="-37.8" x2="1122.4118172480387" y2="-18.200000000000003" stroke-width="1" stroke-dasharray="none" stroke="black"/>
<line x1="1116.3212394451646" y1="18.200000000000003" x2="1150.2694352735148" y2="37.8" stroke-width="1" stroke-dasharray="1" stroke="black"/>
<line x1="1116.3212394451646" y1="-37.8" x2="1150.2694352735148" y2="-18.200000000000003" stroke-width="1" stroke-dasharray="none" stroke="black"/>
<line x1="1088.4636214196887" y1="18.200000000000003" x2="1116.3212394451646" y2="18.200000000000003" stroke-width="1" stroke-dasharray="1" stroke="black"/>
<line x1="1122.4118172480387" y1="37.8" x2="1150.2694352735148" y2="37.8" stroke-width="1" stroke-dasharray="none" stroke="black"/>
<line x1="1088.4636214196887" y1="-37.8" x2="1116.3212394451646" y2="-37.8" stroke-width="1" stroke-dasharray="none" stroke="black"/>
<line x1="1122.4118172480387" y1="-18.200000000000003" x2="1150.2694352735148" y2="-18.200000000000003" stroke-width="1" stroke-dasharray="none" stroke="black"/>
<text x="1119.3665283466016" y="-47.8" font-family="arial" font-size="14px" text-anchor="middle" fill="black">56x56x256</text><line x1="1200.2694352735145" y1="18.200000000000003" x2="1200.2694352735145" y2="-37.8" stroke-width="1" stroke-dasharray="none" stroke="black"/>
<line x1="1228.1270532989904" y1="18.200000000000003" x2="1228.1270532989904" y2="-37.8" stroke-width="1" stroke-dasharray="1" stroke="black"/>
<line x1="1234.2176311018645" y1="37.8" x2="1234.2176311018645" y2="-18.200000000000003" stroke-width="1" stroke-dasharray="none" stroke="black"/>
<line x1="1262.0752491273406" y1="37.8" x2="1262.0752491273406" y2="-18.200000000000003" stroke-width="1" stroke-dasharray="none" stroke="black"/>
<line x1="1200.2694352735145" y1="18.200000000000003" x2="1234.2176311018645" y2="37.8" stroke-width="1" stroke-dasharray="none" stroke="black"/>
<line x1="1200.2694352735145" y1="-37.8" x2="1234.2176311018645" y2="-18.200000000000003" stroke-width="1" stroke-dasharray="none" stroke="black"/>
<line x1="1228.1270532989904" y1="18.200000000000003" x2="1262.0752491273406" y2="37.8" stroke-width="1" stroke-dasharray="1" stroke="black"/>
<line x1="1228.1270532989904" y1="-37.8" x2="1262.0752491273406" y2="-18.200000000000003" stroke-width="1" stroke-dasharray="none" stroke="black"/>
<line x1="1200.2694352735145" y1="18.200000000000003" x2="1228.1270532989904" y2="18.200000000000003" stroke-width="1" stroke-dasharray="1" stroke="black"/>
<line x1="1234.2176311018645" y1="37.8" x2="1262.0752491273406" y2="37.8" stroke-width="1" stroke-dasharray="none" stroke="black"/>
<line x1="1200.2694352735145" y1="-37.8" x2="1228.1270532989904" y2="-37.8" stroke-width="1" stroke-dasharray="none" stroke="black"/>
<line x1="1234.2176311018645" y1="-18.200000000000003" x2="1262.0752491273406" y2="-18.200000000000003" stroke-width="1" stroke-dasharray="none" stroke="black"/>
<text x="1231.1723422004275" y="-47.8" font-family="arial" font-size="14px" text-anchor="middle" fill="black">56x56x256</text><line x1="1312.0752491273404" y1="18.200000000000003" x2="1312.0752491273404" y2="-37.8" stroke-width="1" stroke-dasharray="none" stroke="black"/>
<line x1="1339.9328671528162" y1="18.200000000000003" x2="1339.9328671528162" y2="-37.8" stroke-width="1" stroke-dasharray="1" stroke="black"/>
<line x1="1346.0234449556904" y1="37.8" x2="1346.0234449556904" y2="-18.200000000000003" stroke-width="1" stroke-dasharray="none" stroke="black"/>
<line x1="1373.8810629811665" y1="37.8" x2="1373.8810629811665" y2="-18.200000000000003" stroke-width="1" stroke-dasharray="none" stroke="black"/>
<line x1="1312.0752491273404" y1="18.200000000000003" x2="1346.0234449556904" y2="37.8" stroke-width="1" stroke-dasharray="none" stroke="black"/>
<line x1="1312.0752491273404" y1="-37.8" x2="1346.0234449556904" y2="-18.200000000000003" stroke-width="1" stroke-dasharray="none" stroke="black"/>
<line x1="1339.9328671528162" y1="18.200000000000003" x2="1373.8810629811665" y2="37.8" stroke-width="1" stroke-dasharray="1" stroke="black"/>
<line x1="1339.9328671528162" y1="-37.8" x2="1373.8810629811665" y2="-18.200000000000003" stroke-width="1" stroke-dasharray="none" stroke="black"/>
<line x1="1312.0752491273404" y1="18.200000000000003" x2="1339.9328671528162" y2="18.200000000000003" stroke-width="1" stroke-dasharray="1" stroke="black"/>
<line x1="1346.0234449556904" y1="37.8" x2="1373.8810629811665" y2="37.8" stroke-width="1" stroke-dasharray="none" stroke="black"/>
<line x1="1312.0752491273404" y1="-37.8" x2="1339.9328671528162" y2="-37.8" stroke-width="1" stroke-dasharray="none" stroke="black"/>
<line x1="1346.0234449556904" y1="-18.200000000000003" x2="1373.8810629811665" y2="-18.200000000000003" stroke-width="1" stroke-dasharray="none" stroke="black"/>
<text x="1342.9781560542533" y="-47.8" font-family="arial" font-size="14px" text-anchor="middle" fill="black">56x56x256</text><line x1="1423.8810629811662" y1="9.100000000000001" x2="1423.8810629811662" y2="-18.9" stroke-width="1" stroke-dasharray="none" stroke="black"/>
<line x1="1451.738681006642" y1="9.100000000000001" x2="1451.738681006642" y2="-18.9" stroke-width="1" stroke-dasharray="1" stroke="black"/>
<line x1="1440.8551608953412" y1="18.9" x2="1440.8551608953412" y2="-9.100000000000001" stroke-width="1" stroke-dasharray="none" stroke="black"/>
<line x1="1468.712778920817" y1="18.9" x2="1468.712778920817" y2="-9.100000000000001" stroke-width="1" stroke-dasharray="none" stroke="black"/>
<line x1="1423.8810629811662" y1="9.100000000000001" x2="1440.8551608953412" y2="18.9" stroke-width="1" stroke-dasharray="none" stroke="black"/>
<line x1="1423.8810629811662" y1="-18.9" x2="1440.8551608953412" y2="-9.100000000000001" stroke-width="1" stroke-dasharray="none" stroke="black"/>
<line x1="1451.738681006642" y1="9.100000000000001" x2="1468.712778920817" y2="18.9" stroke-width="1" stroke-dasharray="1" stroke="black"/>
<line x1="1451.738681006642" y1="-18.9" x2="1468.712778920817" y2="-9.100000000000001" stroke-width="1" stroke-dasharray="none" stroke="black"/>
<line x1="1423.8810629811662" y1="9.100000000000001" x2="1451.738681006642" y2="9.100000000000001" stroke-width="1" stroke-dasharray="1" stroke="black"/>
<line x1="1440.8551608953412" y1="18.9" x2="1468.712778920817" y2="18.9" stroke-width="1" stroke-dasharray="none" stroke="black"/>
<line x1="1423.8810629811662" y1="-18.9" x2="1451.738681006642" y2="-18.9" stroke-width="1" stroke-dasharray="none" stroke="black"/>
<line x1="1440.8551608953412" y1="-9.100000000000001" x2="1468.712778920817" y2="-9.100000000000001" stroke-width="1" stroke-dasharray="none" stroke="black"/>
<text x="1446.2969209509915" y="-28.9" font-family="arial" font-size="14px" text-anchor="middle" fill="black">28x28x256</text><line x1="1518.712778920817" y1="9.100000000000001" x2="1518.712778920817" y2="-18.9" stroke-width="1" stroke-dasharray="none" stroke="black"/>
<line x1="1560.9370320655496" y1="9.100000000000001" x2="1560.9370320655496" y2="-18.9" stroke-width="1" stroke-dasharray="1" stroke="black"/>
<line x1="1535.686876834992" y1="18.9" x2="1535.686876834992" y2="-9.100000000000001" stroke-width="1" stroke-dasharray="none" stroke="black"/>
<line x1="1577.9111299797246" y1="18.9" x2="1577.9111299797246" y2="-9.100000000000001" stroke-width="1" stroke-dasharray="none" stroke="black"/>
<line x1="1518.712778920817" y1="9.100000000000001" x2="1535.686876834992" y2="18.9" stroke-width="1" stroke-dasharray="none" stroke="black"/>
<line x1="1518.712778920817" y1="-18.9" x2="1535.686876834992" y2="-9.100000000000001" stroke-width="1" stroke-dasharray="none" stroke="black"/>
<line x1="1560.9370320655496" y1="9.100000000000001" x2="1577.9111299797246" y2="18.9" stroke-width="1" stroke-dasharray="1" stroke="black"/>
<line x1="1560.9370320655496" y1="-18.9" x2="1577.9111299797246" y2="-9.100000000000001" stroke-width="1" stroke-dasharray="none" stroke="black"/>
<line x1="1518.712778920817" y1="9.100000000000001" x2="1560.9370320655496" y2="9.100000000000001" stroke-width="1" stroke-dasharray="1" stroke="black"/>
<line x1="1535.686876834992" y1="18.9" x2="1577.9111299797246" y2="18.9" stroke-width="1" stroke-dasharray="none" stroke="black"/>
<line x1="1518.712778920817" y1="-18.9" x2="1560.9370320655496" y2="-18.9" stroke-width="1" stroke-dasharray="none" stroke="black"/>
<line x1="1535.686876834992" y1="-9.100000000000001" x2="1577.9111299797246" y2="-9.100000000000001" stroke-width="1" stroke-dasharray="none" stroke="black"/>
<text x="1548.3119544502708" y="-28.9" font-family="arial" font-size="14px" text-anchor="middle" fill="black">28x28x512</text><line x1="1627.9111299797246" y1="9.100000000000001" x2="1627.9111299797246" y2="-18.9" stroke-width="1" stroke-dasharray="none" stroke="black"/>
<line x1="1670.1353831244571" y1="9.100000000000001" x2="1670.1353831244571" y2="-18.9" stroke-width="1" stroke-dasharray="1" stroke="black"/>
<line x1="1644.8852278938996" y1="18.9" x2="1644.8852278938996" y2="-9.100000000000001" stroke-width="1" stroke-dasharray="none" stroke="black"/>
<line x1="1687.109481038632" y1="18.9" x2="1687.109481038632" y2="-9.100000000000001" stroke-width="1" stroke-dasharray="none" stroke="black"/>
<line x1="1627.9111299797246" y1="9.100000000000001" x2="1644.8852278938996" y2="18.9" stroke-width="1" stroke-dasharray="none" stroke="black"/>
<line x1="1627.9111299797246" y1="-18.9" x2="1644.8852278938996" y2="-9.100000000000001" stroke-width="1" stroke-dasharray="none" stroke="black"/>
<line x1="1670.1353831244571" y1="9.100000000000001" x2="1687.109481038632" y2="18.9" stroke-width="1" stroke-dasharray="1" stroke="black"/>
<line x1="1670.1353831244571" y1="-18.9" x2="1687.109481038632" y2="-9.100000000000001" stroke-width="1" stroke-dasharray="none" stroke="black"/>
<line x1="1627.9111299797246" y1="9.100000000000001" x2="1670.1353831244571" y2="9.100000000000001" stroke-width="1" stroke-dasharray="1" stroke="black"/>
<line x1="1644.8852278938996" y1="18.9" x2="1687.109481038632" y2="18.9" stroke-width="1" stroke-dasharray="none" stroke="black"/>
<line x1="1627.9111299797246" y1="-18.9" x2="1670.1353831244571" y2="-18.9" stroke-width="1" stroke-dasharray="none" stroke="black"/>
<line x1="1644.8852278938996" y1="-9.100000000000001" x2="1687.109481038632" y2="-9.100000000000001" stroke-width="1" stroke-dasharray="none" stroke="black"/>
<text x="1657.5103055091784" y="-28.9" font-family="arial" font-size="14px" text-anchor="middle" fill="black">28x28x512</text><line x1="1737.109481038632" y1="9.100000000000001" x2="1737.109481038632" y2="-18.9" stroke-width="1" stroke-dasharray="none" stroke="black"/>
<line x1="1779.3337341833646" y1="9.100000000000001" x2="1779.3337341833646" y2="-18.9" stroke-width="1" stroke-dasharray="1" stroke="black"/>
<line x1="1754.083578952807" y1="18.9" x2="1754.083578952807" y2="-9.100000000000001" stroke-width="1" stroke-dasharray="none" stroke="black"/>
<line x1="1796.3078320975396" y1="18.9" x2="1796.3078320975396" y2="-9.100000000000001" stroke-width="1" stroke-dasharray="none" stroke="black"/>
<line x1="1737.109481038632" y1="9.100000000000001" x2="1754.083578952807" y2="18.9" stroke-width="1" stroke-dasharray="none" stroke="black"/>
<line x1="1737.109481038632" y1="-18.9" x2="1754.083578952807" y2="-9.100000000000001" stroke-width="1" stroke-dasharray="none" stroke="black"/>
<line x1="1779.3337341833646" y1="9.100000000000001" x2="1796.3078320975396" y2="18.9" stroke-width="1" stroke-dasharray="1" stroke="black"/>
<line x1="1779.3337341833646" y1="-18.9" x2="1796.3078320975396" y2="-9.100000000000001" stroke-width="1" stroke-dasharray="none" stroke="black"/>
<line x1="1737.109481038632" y1="9.100000000000001" x2="1779.3337341833646" y2="9.100000000000001" stroke-width="1" stroke-dasharray="1" stroke="black"/>
<line x1="1754.083578952807" y1="18.9" x2="1796.3078320975396" y2="18.9" stroke-width="1" stroke-dasharray="none" stroke="black"/>
<line x1="1737.109481038632" y1="-18.9" x2="1779.3337341833646" y2="-18.9" stroke-width="1" stroke-dasharray="none" stroke="black"/>
<line x1="1754.083578952807" y1="-9.100000000000001" x2="1796.3078320975396" y2="-9.100000000000001" stroke-width="1" stroke-dasharray="none" stroke="black"/>
<text x="1766.7086565680859" y="-28.9" font-family="arial" font-size="14px" text-anchor="middle" fill="black">28x28x512</text><line x1="1846.3078320975396" y1="4.550000000000001" x2="1846.3078320975396" y2="-9.45" stroke-width="1" stroke-dasharray="none" stroke="black"/>
<line x1="1888.5320852422722" y1="4.550000000000001" x2="1888.5320852422722" y2="-9.45" stroke-width="1" stroke-dasharray="1" stroke="black"/>
<line x1="1854.7948810546272" y1="9.45" x2="1854.7948810546272" y2="-4.550000000000001" stroke-width="1" stroke-dasharray="none" stroke="black"/>
<line x1="1897.0191341993598" y1="9.45" x2="1897.0191341993598" y2="-4.550000000000001" stroke-width="1" stroke-dasharray="none" stroke="black"/>
<line x1="1846.3078320975396" y1="4.550000000000001" x2="1854.7948810546272" y2="9.45" stroke-width="1" stroke-dasharray="none" stroke="black"/>
<line x1="1846.3078320975396" y1="-9.45" x2="1854.7948810546272" y2="-4.550000000000001" stroke-width="1" stroke-dasharray="none" stroke="black"/>
<line x1="1888.5320852422722" y1="4.550000000000001" x2="1897.0191341993598" y2="9.45" stroke-width="1" stroke-dasharray="1" stroke="black"/>
<line x1="1888.5320852422722" y1="-9.45" x2="1897.0191341993598" y2="-4.550000000000001" stroke-width="1" stroke-dasharray="none" stroke="black"/>
<line x1="1846.3078320975396" y1="4.550000000000001" x2="1888.5320852422722" y2="4.550000000000001" stroke-width="1" stroke-dasharray="1" stroke="black"/>
<line x1="1854.7948810546272" y1="9.45" x2="1897.0191341993598" y2="9.45" stroke-width="1" stroke-dasharray="none" stroke="black"/>
<line x1="1846.3078320975396" y1="-9.45" x2="1888.5320852422722" y2="-9.45" stroke-width="1" stroke-dasharray="none" stroke="black"/>
<line x1="1854.7948810546272" y1="-4.550000000000001" x2="1897.0191341993598" y2="-4.550000000000001" stroke-width="1" stroke-dasharray="none" stroke="black"/>
<text x="1871.6634831484498" y="-19.45" font-family="arial" font-size="14px" text-anchor="middle" fill="black">14x14x512</text><line x1="1947.0191341993598" y1="4.550000000000001" x2="1947.0191341993598" y2="-9.45" stroke-width="1" stroke-dasharray="none" stroke="black"/>
<line x1="1989.2433873440923" y1="4.550000000000001" x2="1989.2433873440923" y2="-9.45" stroke-width="1" stroke-dasharray="1" stroke="black"/>
<line x1="1955.5061831564474" y1="9.45" x2="1955.5061831564474" y2="-4.550000000000001" stroke-width="1" stroke-dasharray="none" stroke="black"/>
<line x1="1997.73043630118" y1="9.45" x2="1997.73043630118" y2="-4.550000000000001" stroke-width="1" stroke-dasharray="none" stroke="black"/>
<line x1="1947.0191341993598" y1="4.550000000000001" x2="1955.5061831564474" y2="9.45" stroke-width="1" stroke-dasharray="none" stroke="black"/>
<line x1="1947.0191341993598" y1="-9.45" x2="1955.5061831564474" y2="-4.550000000000001" stroke-width="1" stroke-dasharray="none" stroke="black"/>
<line x1="1989.2433873440923" y1="4.550000000000001" x2="1997.73043630118" y2="9.45" stroke-width="1" stroke-dasharray="1" stroke="black"/>
<line x1="1989.2433873440923" y1="-9.45" x2="1997.73043630118" y2="-4.550000000000001" stroke-width="1" stroke-dasharray="none" stroke="black"/>
<line x1="1947.0191341993598" y1="4.550000000000001" x2="1989.2433873440923" y2="4.550000000000001" stroke-width="1" stroke-dasharray="1" stroke="black"/>
<line x1="1955.5061831564474" y1="9.45" x2="1997.73043630118" y2="9.45" stroke-width="1" stroke-dasharray="none" stroke="black"/>
<line x1="1947.0191341993598" y1="-9.45" x2="1989.2433873440923" y2="-9.45" stroke-width="1" stroke-dasharray="none" stroke="black"/>
<line x1="1955.5061831564474" y1="-4.550000000000001" x2="1997.73043630118" y2="-4.550000000000001" stroke-width="1" stroke-dasharray="none" stroke="black"/>
<text x="1972.3747852502697" y="-19.45" font-family="arial" font-size="14px" text-anchor="middle" fill="black">14x14x512</text><line x1="2047.73043630118" y1="4.550000000000001" x2="2047.73043630118" y2="-9.45" stroke-width="1" stroke-dasharray="none" stroke="black"/>
<line x1="2089.9546894459127" y1="4.550000000000001" x2="2089.9546894459127" y2="-9.45" stroke-width="1" stroke-dasharray="1" stroke="black"/>
<line x1="2056.2174852582675" y1="9.45" x2="2056.2174852582675" y2="-4.550000000000001" stroke-width="1" stroke-dasharray="none" stroke="black"/>
<line x1="2098.441738403" y1="9.45" x2="2098.441738403" y2="-4.550000000000001" stroke-width="1" stroke-dasharray="none" stroke="black"/>
<line x1="2047.73043630118" y1="4.550000000000001" x2="2056.2174852582675" y2="9.45" stroke-width="1" stroke-dasharray="none" stroke="black"/>
<line x1="2047.73043630118" y1="-9.45" x2="2056.2174852582675" y2="-4.550000000000001" stroke-width="1" stroke-dasharray="none" stroke="black"/>
<line x1="2089.9546894459127" y1="4.550000000000001" x2="2098.441738403" y2="9.45" stroke-width="1" stroke-dasharray="1" stroke="black"/>
<line x1="2089.9546894459127" y1="-9.45" x2="2098.441738403" y2="-4.550000000000001" stroke-width="1" stroke-dasharray="none" stroke="black"/>
<line x1="2047.73043630118" y1="4.550000000000001" x2="2089.9546894459127" y2="4.550000000000001" stroke-width="1" stroke-dasharray="1" stroke="black"/>
<line x1="2056.2174852582675" y1="9.45" x2="2098.441738403" y2="9.45" stroke-width="1" stroke-dasharray="none" stroke="black"/>
<line x1="2047.73043630118" y1="-9.45" x2="2089.9546894459127" y2="-9.45" stroke-width="1" stroke-dasharray="none" stroke="black"/>
<line x1="2056.2174852582675" y1="-4.550000000000001" x2="2098.441738403" y2="-4.550000000000001" stroke-width="1" stroke-dasharray="none" stroke="black"/>
<text x="2073.08608735209" y="-19.45" font-family="arial" font-size="14px" text-anchor="middle" fill="black">14x14x512</text><line x1="2148.4417384030003" y1="4.550000000000001" x2="2148.4417384030003" y2="-9.45" stroke-width="1" stroke-dasharray="none" stroke="black"/>
<line x1="2190.665991547733" y1="4.550000000000001" x2="2190.665991547733" y2="-9.45" stroke-width="1" stroke-dasharray="1" stroke="black"/>
<line x1="2156.928787360088" y1="9.45" x2="2156.928787360088" y2="-4.550000000000001" stroke-width="1" stroke-dasharray="none" stroke="black"/>
<line x1="2199.15304050482" y1="9.45" x2="2199.15304050482" y2="-4.550000000000001" stroke-width="1" stroke-dasharray="none" stroke="black"/>
<line x1="2148.4417384030003" y1="4.550000000000001" x2="2156.928787360088" y2="9.45" stroke-width="1" stroke-dasharray="none" stroke="black"/>
<line x1="2148.4417384030003" y1="-9.45" x2="2156.928787360088" y2="-4.550000000000001" stroke-width="1" stroke-dasharray="none" stroke="black"/>
<line x1="2190.665991547733" y1="4.550000000000001" x2="2199.15304050482" y2="9.45" stroke-width="1" stroke-dasharray="1" stroke="black"/>
<line x1="2190.665991547733" y1="-9.45" x2="2199.15304050482" y2="-4.550000000000001" stroke-width="1" stroke-dasharray="none" stroke="black"/>
<line x1="2148.4417384030003" y1="4.550000000000001" x2="2190.665991547733" y2="4.550000000000001" stroke-width="1" stroke-dasharray="1" stroke="black"/>
<line x1="2156.928787360088" y1="9.45" x2="2199.15304050482" y2="9.45" stroke-width="1" stroke-dasharray="none" stroke="black"/>
<line x1="2148.4417384030003" y1="-9.45" x2="2190.665991547733" y2="-9.45" stroke-width="1" stroke-dasharray="none" stroke="black"/>
<line x1="2156.928787360088" y1="-4.550000000000001" x2="2199.15304050482" y2="-4.550000000000001" stroke-width="1" stroke-dasharray="none" stroke="black"/>
<text x="2173.7973894539105" y="-19.45" font-family="arial" font-size="14px" text-anchor="middle" fill="black">14x14x512</text><line x1="2249.1530405048206" y1="2.2750000000000004" x2="2249.1530405048206" y2="-4.725" stroke-width="1" stroke-dasharray="none" stroke="black"/>
<line x1="2291.3772936495534" y1="2.2750000000000004" x2="2291.3772936495534" y2="-4.725" stroke-width="1" stroke-dasharray="1" stroke="black"/>
<line x1="2253.3965649833644" y1="4.725" x2="2253.3965649833644" y2="-2.2750000000000004" stroke-width="1" stroke-dasharray="none" stroke="black"/>
<line x1="2295.620818128097" y1="4.725" x2="2295.620818128097" y2="-2.2750000000000004" stroke-width="1" stroke-dasharray="none" stroke="black"/>
<line x1="2249.1530405048206" y1="2.2750000000000004" x2="2253.3965649833644" y2="4.725" stroke-width="1" stroke-dasharray="none" stroke="black"/>
<line x1="2249.1530405048206" y1="-4.725" x2="2253.3965649833644" y2="-2.2750000000000004" stroke-width="1" stroke-dasharray="none" stroke="black"/>
<line x1="2291.3772936495534" y1="2.2750000000000004" x2="2295.620818128097" y2="4.725" stroke-width="1" stroke-dasharray="1" stroke="black"/>
<line x1="2291.3772936495534" y1="-4.725" x2="2295.620818128097" y2="-2.2750000000000004" stroke-width="1" stroke-dasharray="none" stroke="black"/>
<line x1="2249.1530405048206" y1="2.2750000000000004" x2="2291.3772936495534" y2="2.2750000000000004" stroke-width="1" stroke-dasharray="1" stroke="black"/>
<line x1="2253.3965649833644" y1="4.725" x2="2295.620818128097" y2="4.725" stroke-width="1" stroke-dasharray="none" stroke="black"/>
<line x1="2249.1530405048206" y1="-4.725" x2="2291.3772936495534" y2="-4.725" stroke-width="1" stroke-dasharray="none" stroke="black"/>
<line x1="2253.3965649833644" y1="-2.2750000000000004" x2="2295.620818128097" y2="-2.2750000000000004" stroke-width="1" stroke-dasharray="none" stroke="black"/>
<text x="2272.386929316459" y="-14.725" font-family="arial" font-size="14px" text-anchor="middle" fill="black">7x7x512</text><line x1="2345.620818128097" y1="-218.0969684577976" x2="2345.620818128097" y2="218.0969684577976" stroke-width="1" stroke-dasharray="none" stroke="black"/>
<line x1="2345.620818128097" y1="218.0969684577976" x2="2349.620818128097" y2="218.0969684577976" stroke-width="1" stroke-dasharray="none" stroke="black"/>
<line x1="2349.620818128097" y1="218.0969684577976" x2="2349.620818128097" y2="-218.0969684577976" stroke-width="1" stroke-dasharray="none" stroke="black"/>
<line x1="2349.620818128097" y1="-218.0969684577976" x2="2345.620818128097" y2="-218.0969684577976" stroke-width="1" stroke-dasharray="none" stroke="black"/>
<text x="2347.620818128097" y="-228.0969684577976" font-family="arial" font-size="14px" text-anchor="middle" fill="black">25088</text><line x1="2399.620818128097" y1="-73.51669471981023" x2="2399.620818128097" y2="73.51669471981023" stroke-width="1" stroke-dasharray="none" stroke="black"/>
<line x1="2399.620818128097" y1="73.51669471981023" x2="2403.620818128097" y2="73.51669471981023" stroke-width="1" stroke-dasharray="none" stroke="black"/>
<line x1="2403.620818128097" y1="73.51669471981023" x2="2403.620818128097" y2="-73.51669471981023" stroke-width="1" stroke-dasharray="none" stroke="black"/>
<line x1="2403.620818128097" y1="-73.51669471981023" x2="2399.620818128097" y2="-73.51669471981023" stroke-width="1" stroke-dasharray="none" stroke="black"/>
<text x="2401.620818128097" y="-83.51669471981023" font-family="arial" font-size="14px" text-anchor="middle" fill="black">4096</text><line x1="2453.620818128097" y1="-73.51669471981023" x2="2453.620818128097" y2="73.51669471981023" stroke-width="1" stroke-dasharray="none" stroke="black"/>
<line x1="2453.620818128097" y1="73.51669471981023" x2="2457.620818128097" y2="73.51669471981023" stroke-width="1" stroke-dasharray="none" stroke="black"/>
<line x1="2457.620818128097" y1="73.51669471981023" x2="2457.620818128097" y2="-73.51669471981023" stroke-width="1" stroke-dasharray="none" stroke="black"/>
<line x1="2457.620818128097" y1="-73.51669471981023" x2="2453.620818128097" y2="-73.51669471981023" stroke-width="1" stroke-dasharray="none" stroke="black"/>
<text x="2455.620818128097" y="-83.51669471981023" font-family="arial" font-size="14px" text-anchor="middle" fill="black">4096</text><line x1="2507.620818128097" y1="-31.547867224009657" x2="2507.620818128097" y2="31.547867224009657" stroke-width="1" stroke-dasharray="none" stroke="black"/>
<line x1="2507.620818128097" y1="31.547867224009657" x2="2511.620818128097" y2="31.547867224009657" stroke-width="1" stroke-dasharray="none" stroke="black"/>
<line x1="2511.620818128097" y1="31.547867224009657" x2="2511.620818128097" y2="-31.547867224009657" stroke-width="1" stroke-dasharray="none" stroke="black"/>
<line x1="2511.620818128097" y1="-31.547867224009657" x2="2507.620818128097" y2="-31.547867224009657" stroke-width="1" stroke-dasharray="none" stroke="black"/>
<text x="2509.620818128097" y="-41.54786722400966" font-family="arial" font-size="14px" text-anchor="middle" fill="black">1000</text><line x1="67.89639165669999" y1="0.9750000000000002" x2="67.89639165669999" y2="-2.025" stroke-width="1" stroke-dasharray="none" stroke="blue"/>
<line x1="69.82957370163176" y1="0.9750000000000002" x2="69.82957370163176" y2="-2.025" stroke-width="1" stroke-dasharray="1" stroke="blue"/>
<line x1="69.71504500464731" y1="2.025" x2="69.71504500464731" y2="-0.9750000000000002" stroke-width="1" stroke-dasharray="none" stroke="blue"/>
<line x1="71.64822704957908" y1="2.025" x2="71.64822704957908" y2="-0.9750000000000002" stroke-width="1" stroke-dasharray="none" stroke="blue"/>
<line x1="67.89639165669999" y1="0.9750000000000002" x2="69.71504500464731" y2="2.025" stroke-width="1" stroke-dasharray="none" stroke="blue"/>
<line x1="67.89639165669999" y1="-2.025" x2="69.71504500464731" y2="-0.9750000000000002" stroke-width="1" stroke-dasharray="none" stroke="blue"/>
<line x1="69.82957370163176" y1="0.9750000000000002" x2="71.64822704957908" y2="2.025" stroke-width="1" stroke-dasharray="1" stroke="blue"/>
<line x1="69.82957370163176" y1="-2.025" x2="71.64822704957908" y2="-0.9750000000000002" stroke-width="1" stroke-dasharray="none" stroke="blue"/>
<line x1="67.89639165669999" y1="0.9750000000000002" x2="69.82957370163176" y2="0.9750000000000002" stroke-width="1" stroke-dasharray="1" stroke="blue"/>
<line x1="69.71504500464731" y1="2.025" x2="71.64822704957908" y2="2.025" stroke-width="1" stroke-dasharray="none" stroke="blue"/>
<line x1="67.89639165669999" y1="-2.025" x2="69.82957370163176" y2="-2.025" stroke-width="1" stroke-dasharray="none" stroke="blue"/>
<line x1="69.71504500464731" y1="-0.9750000000000002" x2="71.64822704957908" y2="-0.9750000000000002" stroke-width="1" stroke-dasharray="none" stroke="blue"/>
<line x1="69.82957370163176" y1="-2.025" x2="221.67416118668172" y2="-75.6" stroke-width="1" stroke-dasharray="none" stroke="blue"/>
<line x1="71.64822704957908" y1="2.025" x2="221.67416118668172" y2="-75.6" stroke-width="1" stroke-dasharray="none" stroke="blue"/>
<text x="162.72596535833173" y="175.2" font-family="arial" font-size="14px" text-anchor="middle" fill="black">conv3x3, 64</text><text x="162.72596535833173" y="189.2" font-family="arial" font-size="14px" text-anchor="middle" fill="black">stride (1, 1)</text><line x1="255.62235701503172" y1="0.9750000000000002" x2="255.62235701503172" y2="-2.025" stroke-width="1" stroke-dasharray="none" stroke="blue"/>
<line x1="267.7480895471149" y1="0.9750000000000002" x2="267.7480895471149" y2="-2.025" stroke-width="1" stroke-dasharray="1" stroke="blue"/>
<line x1="257.44101036297906" y1="2.025" x2="257.44101036297906" y2="-0.9750000000000002" stroke-width="1" stroke-dasharray="none" stroke="blue"/>
<line x1="269.56674289506225" y1="2.025" x2="269.56674289506225" y2="-0.9750000000000002" stroke-width="1" stroke-dasharray="none" stroke="blue"/>
<line x1="255.62235701503172" y1="0.9750000000000002" x2="257.44101036297906" y2="2.025" stroke-width="1" stroke-dasharray="none" stroke="blue"/>
<line x1="255.62235701503172" y1="-2.025" x2="257.44101036297906" y2="-0.9750000000000002" stroke-width="1" stroke-dasharray="none" stroke="blue"/>
<line x1="267.7480895471149" y1="0.9750000000000002" x2="269.56674289506225" y2="2.025" stroke-width="1" stroke-dasharray="1" stroke="blue"/>
<line x1="267.7480895471149" y1="-2.025" x2="269.56674289506225" y2="-0.9750000000000002" stroke-width="1" stroke-dasharray="none" stroke="blue"/>
<line x1="255.62235701503172" y1="0.9750000000000002" x2="267.7480895471149" y2="0.9750000000000002" stroke-width="1" stroke-dasharray="1" stroke="blue"/>
<line x1="257.44101036297906" y1="2.025" x2="269.56674289506225" y2="2.025" stroke-width="1" stroke-dasharray="none" stroke="blue"/>
<line x1="255.62235701503172" y1="-2.025" x2="267.7480895471149" y2="-2.025" stroke-width="1" stroke-dasharray="none" stroke="blue"/>
<line x1="257.44101036297906" y1="-0.9750000000000002" x2="269.56674289506225" y2="-0.9750000000000002" stroke-width="1" stroke-dasharray="none" stroke="blue"/>
<line x1="267.7480895471149" y1="-2.025" x2="419.5926770321649" y2="-75.6" stroke-width="1" stroke-dasharray="none" stroke="blue"/>
<line x1="269.5667428950622" y1="2.025" x2="419.5926770321649" y2="-75.6" stroke-width="1" stroke-dasharray="none" stroke="blue"/>
<text x="360.6444812038149" y="175.2" font-family="arial" font-size="14px" text-anchor="middle" fill="black">conv3x3, 64</text><text x="360.6444812038149" y="189.2" font-family="arial" font-size="14px" text-anchor="middle" fill="black">stride (1, 1)</text><line x1="453.5408728605149" y1="0.6500000000000001" x2="453.5408728605149" y2="-1.3499999999999999" stroke-width="1" stroke-dasharray="none" stroke="blue"/>
<line x1="465.6666053925981" y1="0.6500000000000001" x2="465.6666053925981" y2="-1.3499999999999999" stroke-width="1" stroke-dasharray="1" stroke="blue"/>
<line x1="454.75330842581315" y1="1.35" x2="454.75330842581315" y2="-0.6500000000000001" stroke-width="1" stroke-dasharray="none" stroke="blue"/>
<line x1="466.87904095789634" y1="1.35" x2="466.87904095789634" y2="-0.6500000000000001" stroke-width="1" stroke-dasharray="none" stroke="blue"/>
<line x1="453.5408728605149" y1="0.6500000000000001" x2="454.75330842581315" y2="1.35" stroke-width="1" stroke-dasharray="none" stroke="blue"/>
<line x1="453.5408728605149" y1="-1.3499999999999999" x2="454.75330842581315" y2="-0.6500000000000001" stroke-width="1" stroke-dasharray="none" stroke="blue"/>
<line x1="465.6666053925981" y1="0.6500000000000001" x2="466.87904095789634" y2="1.35" stroke-width="1" stroke-dasharray="1" stroke="blue"/>
<line x1="465.6666053925981" y1="-1.3499999999999999" x2="466.87904095789634" y2="-0.6500000000000001" stroke-width="1" stroke-dasharray="none" stroke="blue"/>
<line x1="453.5408728605149" y1="0.6500000000000001" x2="465.6666053925981" y2="0.6500000000000001" stroke-width="1" stroke-dasharray="1" stroke="blue"/>
<line x1="454.75330842581315" y1="1.35" x2="466.87904095789634" y2="1.35" stroke-width="1" stroke-dasharray="none" stroke="blue"/>
<line x1="453.5408728605149" y1="-1.3499999999999999" x2="465.6666053925981" y2="-1.3499999999999999" stroke-width="1" stroke-dasharray="none" stroke="blue"/>
<line x1="454.75330842581315" y1="-0.6500000000000001" x2="466.87904095789634" y2="-0.6500000000000001" stroke-width="1" stroke-dasharray="none" stroke="blue"/>
<line x1="465.6666053925981" y1="-1.35" x2="600.537094963473" y2="-37.8" stroke-width="1" stroke-dasharray="none" stroke="blue"/>
<line x1="466.87904095789634" y1="1.3499999999999999" x2="600.537094963473" y2="-37.8" stroke-width="1" stroke-dasharray="none" stroke="blue"/>
<text x="558.562997049298" y="175.2" font-family="arial" font-size="14px" text-anchor="middle" fill="black">maxpool2x2</text><text x="558.562997049298" y="189.2" font-family="arial" font-size="14px" text-anchor="middle" fill="black">stride (2, 2)</text><line x1="617.511192877648" y1="0.9750000000000002" x2="617.511192877648" y2="-2.025" stroke-width="1" stroke-dasharray="none" stroke="blue"/>
<line x1="629.6369254097311" y1="0.9750000000000002" x2="629.6369254097311" y2="-2.025" stroke-width="1" stroke-dasharray="1" stroke="blue"/>
<line x1="619.3298462255954" y1="2.025" x2="619.3298462255954" y2="-0.9750000000000002" stroke-width="1" stroke-dasharray="none" stroke="blue"/>
<line x1="631.4555787576785" y1="2.025" x2="631.4555787576785" y2="-0.9750000000000002" stroke-width="1" stroke-dasharray="none" stroke="blue"/>
<line x1="617.511192877648" y1="0.9750000000000002" x2="619.3298462255954" y2="2.025" stroke-width="1" stroke-dasharray="none" stroke="blue"/>
<line x1="617.511192877648" y1="-2.025" x2="619.3298462255954" y2="-0.9750000000000002" stroke-width="1" stroke-dasharray="none" stroke="blue"/>
<line x1="629.6369254097311" y1="0.9750000000000002" x2="631.4555787576785" y2="2.025" stroke-width="1" stroke-dasharray="1" stroke="blue"/>
<line x1="629.6369254097311" y1="-2.025" x2="631.4555787576785" y2="-0.9750000000000002" stroke-width="1" stroke-dasharray="none" stroke="blue"/>
<line x1="617.511192877648" y1="0.9750000000000002" x2="629.6369254097311" y2="0.9750000000000002" stroke-width="1" stroke-dasharray="1" stroke="blue"/>
<line x1="619.3298462255954" y1="2.025" x2="631.4555787576785" y2="2.025" stroke-width="1" stroke-dasharray="none" stroke="blue"/>
<line x1="617.511192877648" y1="-2.025" x2="629.6369254097311" y2="-2.025" stroke-width="1" stroke-dasharray="none" stroke="blue"/>
<line x1="619.3298462255954" y1="-0.9750000000000002" x2="631.4555787576785" y2="-0.9750000000000002" stroke-width="1" stroke-dasharray="none" stroke="blue"/>
<line x1="629.6369254097311" y1="-2.025" x2="730.5592191522561" y2="-37.8" stroke-width="1" stroke-dasharray="none" stroke="blue"/>
<line x1="631.4555787576785" y1="2.025" x2="730.5592191522561" y2="-37.8" stroke-width="1" stroke-dasharray="none" stroke="blue"/>
<text x="688.5851212380811" y="99.6" font-family="arial" font-size="14px" text-anchor="middle" fill="black">conv3x3, 128</text><text x="688.5851212380811" y="113.6" font-family="arial" font-size="14px" text-anchor="middle" fill="black">stride (1, 1)</text><line x1="747.5333170664311" y1="0.9750000000000002" x2="747.5333170664311" y2="-2.025" stroke-width="1" stroke-dasharray="none" stroke="blue"/>
<line x1="765.9124907463837" y1="0.9750000000000002" x2="765.9124907463837" y2="-2.025" stroke-width="1" stroke-dasharray="1" stroke="blue"/>
<line x1="749.3519704143785" y1="2.025" x2="749.3519704143785" y2="-0.9750000000000002" stroke-width="1" stroke-dasharray="none" stroke="blue"/>
<line x1="767.731144094331" y1="2.025" x2="767.731144094331" y2="-0.9750000000000002" stroke-width="1" stroke-dasharray="none" stroke="blue"/>
<line x1="747.5333170664311" y1="0.9750000000000002" x2="749.3519704143785" y2="2.025" stroke-width="1" stroke-dasharray="none" stroke="blue"/>
<line x1="747.5333170664311" y1="-2.025" x2="749.3519704143785" y2="-0.9750000000000002" stroke-width="1" stroke-dasharray="none" stroke="blue"/>
<line x1="765.9124907463837" y1="0.9750000000000002" x2="767.731144094331" y2="2.025" stroke-width="1" stroke-dasharray="1" stroke="blue"/>
<line x1="765.9124907463837" y1="-2.025" x2="767.731144094331" y2="-0.9750000000000002" stroke-width="1" stroke-dasharray="none" stroke="blue"/>
<line x1="747.5333170664311" y1="0.9750000000000002" x2="765.9124907463837" y2="0.9750000000000002" stroke-width="1" stroke-dasharray="1" stroke="blue"/>
<line x1="749.3519704143785" y1="2.025" x2="767.731144094331" y2="2.025" stroke-width="1" stroke-dasharray="none" stroke="blue"/>
<line x1="747.5333170664311" y1="-2.025" x2="765.9124907463837" y2="-2.025" stroke-width="1" stroke-dasharray="none" stroke="blue"/>
<line x1="749.3519704143785" y1="-0.9750000000000002" x2="767.731144094331" y2="-0.9750000000000002" stroke-width="1" stroke-dasharray="none" stroke="blue"/>
<line x1="765.9124907463837" y1="-2.025" x2="866.8347844889087" y2="-37.8" stroke-width="1" stroke-dasharray="none" stroke="blue"/>
<line x1="767.7311440943311" y1="2.025" x2="866.8347844889087" y2="-37.8" stroke-width="1" stroke-dasharray="none" stroke="blue"/>
<text x="824.8606865747337" y="99.6" font-family="arial" font-size="14px" text-anchor="middle" fill="black">conv3x3, 128</text><text x="824.8606865747337" y="113.6" font-family="arial" font-size="14px" text-anchor="middle" fill="black">stride (1, 1)</text><line x1="883.8088824030837" y1="0.6500000000000001" x2="883.8088824030837" y2="-1.3499999999999999" stroke-width="1" stroke-dasharray="none" stroke="blue"/>
<line x1="902.1880560830363" y1="0.6500000000000001" x2="902.1880560830363" y2="-1.3499999999999999" stroke-width="1" stroke-dasharray="1" stroke="blue"/>
<line x1="885.0213179683818" y1="1.35" x2="885.0213179683818" y2="-0.6500000000000001" stroke-width="1" stroke-dasharray="none" stroke="blue"/>
<line x1="903.4004916483344" y1="1.35" x2="903.4004916483344" y2="-0.6500000000000001" stroke-width="1" stroke-dasharray="none" stroke="blue"/>
<line x1="883.8088824030837" y1="0.6500000000000001" x2="885.0213179683818" y2="1.35" stroke-width="1" stroke-dasharray="none" stroke="blue"/>
<line x1="883.8088824030837" y1="-1.3499999999999999" x2="885.0213179683818" y2="-0.6500000000000001" stroke-width="1" stroke-dasharray="none" stroke="blue"/>
<line x1="902.1880560830363" y1="0.6500000000000001" x2="903.4004916483344" y2="1.35" stroke-width="1" stroke-dasharray="1" stroke="blue"/>
<line x1="902.1880560830363" y1="-1.3499999999999999" x2="903.4004916483344" y2="-0.6500000000000001" stroke-width="1" stroke-dasharray="none" stroke="blue"/>
<line x1="883.8088824030837" y1="0.6500000000000001" x2="902.1880560830363" y2="0.6500000000000001" stroke-width="1" stroke-dasharray="1" stroke="blue"/>
<line x1="885.0213179683818" y1="1.35" x2="903.4004916483344" y2="1.35" stroke-width="1" stroke-dasharray="none" stroke="blue"/>
<line x1="883.8088824030837" y1="-1.3499999999999999" x2="902.1880560830363" y2="-1.3499999999999999" stroke-width="1" stroke-dasharray="none" stroke="blue"/>
<line x1="885.0213179683818" y1="-0.6500000000000001" x2="903.4004916483344" y2="-0.6500000000000001" stroke-width="1" stroke-dasharray="none" stroke="blue"/>
<line x1="902.1880560830363" y1="-1.35" x2="994.6233008684737" y2="-18.9" stroke-width="1" stroke-dasharray="none" stroke="blue"/>
<line x1="903.4004916483344" y1="1.3499999999999999" x2="994.6233008684737" y2="-18.9" stroke-width="1" stroke-dasharray="none" stroke="blue"/>
<text x="961.1362519113862" y="99.6" font-family="arial" font-size="14px" text-anchor="middle" fill="black">maxpool2x2</text><text x="961.1362519113862" y="113.6" font-family="arial" font-size="14px" text-anchor="middle" fill="black">stride (2, 2)</text><line x1="1003.1103498255612" y1="0.9750000000000002" x2="1003.1103498255612" y2="-2.025" stroke-width="1" stroke-dasharray="none" stroke="blue"/>
<line x1="1021.4895235055138" y1="0.9750000000000002" x2="1021.4895235055138" y2="-2.025" stroke-width="1" stroke-dasharray="1" stroke="blue"/>
<line x1="1004.9290031735086" y1="2.025" x2="1004.9290031735086" y2="-0.9750000000000002" stroke-width="1" stroke-dasharray="none" stroke="blue"/>
<line x1="1023.3081768534611" y1="2.025" x2="1023.3081768534611" y2="-0.9750000000000002" stroke-width="1" stroke-dasharray="none" stroke="blue"/>
<line x1="1003.1103498255612" y1="0.9750000000000002" x2="1004.9290031735086" y2="2.025" stroke-width="1" stroke-dasharray="none" stroke="blue"/>
<line x1="1003.1103498255612" y1="-2.025" x2="1004.9290031735086" y2="-0.9750000000000002" stroke-width="1" stroke-dasharray="none" stroke="blue"/>
<line x1="1021.4895235055138" y1="0.9750000000000002" x2="1023.3081768534611" y2="2.025" stroke-width="1" stroke-dasharray="1" stroke="blue"/>
<line x1="1021.4895235055138" y1="-2.025" x2="1023.3081768534611" y2="-0.9750000000000002" stroke-width="1" stroke-dasharray="none" stroke="blue"/>
<line x1="1003.1103498255612" y1="0.9750000000000002" x2="1021.4895235055138" y2="0.9750000000000002" stroke-width="1" stroke-dasharray="1" stroke="blue"/>
<line x1="1004.9290031735086" y1="2.025" x2="1023.3081768534611" y2="2.025" stroke-width="1" stroke-dasharray="none" stroke="blue"/>
<line x1="1003.1103498255612" y1="-2.025" x2="1021.4895235055138" y2="-2.025" stroke-width="1" stroke-dasharray="none" stroke="blue"/>
<line x1="1004.9290031735086" y1="-0.9750000000000002" x2="1023.3081768534611" y2="-0.9750000000000002" stroke-width="1" stroke-dasharray="none" stroke="blue"/>
<line x1="1021.4895235055138" y1="-2.025" x2="1096.9506703767763" y2="-18.9" stroke-width="1" stroke-dasharray="none" stroke="blue"/>
<line x1="1023.3081768534612" y1="2.025" x2="1096.9506703767763" y2="-18.9" stroke-width="1" stroke-dasharray="none" stroke="blue"/>
<text x="1063.4636214196887" y="61.8" font-family="arial" font-size="14px" text-anchor="middle" fill="black">conv3x3, 256</text><text x="1063.4636214196887" y="75.8" font-family="arial" font-size="14px" text-anchor="middle" fill="black">stride (1, 1)</text><line x1="1105.4377193338637" y1="0.9750000000000002" x2="1105.4377193338637" y2="-2.025" stroke-width="1" stroke-dasharray="none" stroke="blue"/>
<line x1="1133.2953373593396" y1="0.9750000000000002" x2="1133.2953373593396" y2="-2.025" stroke-width="1" stroke-dasharray="1" stroke="blue"/>
<line x1="1107.256372681811" y1="2.025" x2="1107.256372681811" y2="-0.9750000000000002" stroke-width="1" stroke-dasharray="none" stroke="blue"/>
<line x1="1135.113990707287" y1="2.025" x2="1135.113990707287" y2="-0.9750000000000002" stroke-width="1" stroke-dasharray="none" stroke="blue"/>
<line x1="1105.4377193338637" y1="0.9750000000000002" x2="1107.256372681811" y2="2.025" stroke-width="1" stroke-dasharray="none" stroke="blue"/>
<line x1="1105.4377193338637" y1="-2.025" x2="1107.256372681811" y2="-0.9750000000000002" stroke-width="1" stroke-dasharray="none" stroke="blue"/>
<line x1="1133.2953373593396" y1="0.9750000000000002" x2="1135.113990707287" y2="2.025" stroke-width="1" stroke-dasharray="1" stroke="blue"/>
<line x1="1133.2953373593396" y1="-2.025" x2="1135.113990707287" y2="-0.9750000000000002" stroke-width="1" stroke-dasharray="none" stroke="blue"/>
<line x1="1105.4377193338637" y1="0.9750000000000002" x2="1133.2953373593396" y2="0.9750000000000002" stroke-width="1" stroke-dasharray="1" stroke="blue"/>
<line x1="1107.256372681811" y1="2.025" x2="1135.113990707287" y2="2.025" stroke-width="1" stroke-dasharray="none" stroke="blue"/>
<line x1="1105.4377193338637" y1="-2.025" x2="1133.2953373593396" y2="-2.025" stroke-width="1" stroke-dasharray="none" stroke="blue"/>
<line x1="1107.256372681811" y1="-0.9750000000000002" x2="1135.113990707287" y2="-0.9750000000000002" stroke-width="1" stroke-dasharray="none" stroke="blue"/>
<line x1="1133.2953373593396" y1="-2.025" x2="1208.7564842306022" y2="-18.9" stroke-width="1" stroke-dasharray="none" stroke="blue"/>
<line x1="1135.1139907072868" y1="2.025" x2="1208.7564842306022" y2="-18.9" stroke-width="1" stroke-dasharray="none" stroke="blue"/>
<text x="1175.2694352735145" y="61.8" font-family="arial" font-size="14px" text-anchor="middle" fill="black">conv3x3, 256</text><text x="1175.2694352735145" y="75.8" font-family="arial" font-size="14px" text-anchor="middle" fill="black">stride (1, 1)</text><line x1="1217.2435331876895" y1="0.9750000000000002" x2="1217.2435331876895" y2="-2.025" stroke-width="1" stroke-dasharray="none" stroke="blue"/>
<line x1="1245.1011512131654" y1="0.9750000000000002" x2="1245.1011512131654" y2="-2.025" stroke-width="1" stroke-dasharray="1" stroke="blue"/>
<line x1="1219.0621865356368" y1="2.025" x2="1219.0621865356368" y2="-0.9750000000000002" stroke-width="1" stroke-dasharray="none" stroke="blue"/>
<line x1="1246.9198045611129" y1="2.025" x2="1246.9198045611129" y2="-0.9750000000000002" stroke-width="1" stroke-dasharray="none" stroke="blue"/>
<line x1="1217.2435331876895" y1="0.9750000000000002" x2="1219.0621865356368" y2="2.025" stroke-width="1" stroke-dasharray="none" stroke="blue"/>
<line x1="1217.2435331876895" y1="-2.025" x2="1219.0621865356368" y2="-0.9750000000000002" stroke-width="1" stroke-dasharray="none" stroke="blue"/>
<line x1="1245.1011512131654" y1="0.9750000000000002" x2="1246.9198045611129" y2="2.025" stroke-width="1" stroke-dasharray="1" stroke="blue"/>
<line x1="1245.1011512131654" y1="-2.025" x2="1246.9198045611129" y2="-0.9750000000000002" stroke-width="1" stroke-dasharray="none" stroke="blue"/>
<line x1="1217.2435331876895" y1="0.9750000000000002" x2="1245.1011512131654" y2="0.9750000000000002" stroke-width="1" stroke-dasharray="1" stroke="blue"/>
<line x1="1219.0621865356368" y1="2.025" x2="1246.9198045611129" y2="2.025" stroke-width="1" stroke-dasharray="none" stroke="blue"/>
<line x1="1217.2435331876895" y1="-2.025" x2="1245.1011512131654" y2="-2.025" stroke-width="1" stroke-dasharray="none" stroke="blue"/>
<line x1="1219.0621865356368" y1="-0.9750000000000002" x2="1246.9198045611129" y2="-0.9750000000000002" stroke-width="1" stroke-dasharray="none" stroke="blue"/>
<line x1="1245.1011512131654" y1="-2.025" x2="1320.562298084428" y2="-18.9" stroke-width="1" stroke-dasharray="none" stroke="blue"/>
<line x1="1246.9198045611126" y1="2.025" x2="1320.562298084428" y2="-18.9" stroke-width="1" stroke-dasharray="none" stroke="blue"/>
<text x="1287.0752491273404" y="61.8" font-family="arial" font-size="14px" text-anchor="middle" fill="black">conv3x3, 256</text><text x="1287.0752491273404" y="75.8" font-family="arial" font-size="14px" text-anchor="middle" fill="black">stride (1, 1)</text><line x1="1329.0493470415154" y1="0.6500000000000001" x2="1329.0493470415154" y2="-1.3499999999999999" stroke-width="1" stroke-dasharray="none" stroke="blue"/>
<line x1="1356.9069650669912" y1="0.6500000000000001" x2="1356.9069650669912" y2="-1.3499999999999999" stroke-width="1" stroke-dasharray="1" stroke="blue"/>
<line x1="1330.2617826068135" y1="1.35" x2="1330.2617826068135" y2="-0.6500000000000001" stroke-width="1" stroke-dasharray="none" stroke="blue"/>
<line x1="1358.1194006322896" y1="1.35" x2="1358.1194006322896" y2="-0.6500000000000001" stroke-width="1" stroke-dasharray="none" stroke="blue"/>
<line x1="1329.0493470415154" y1="0.6500000000000001" x2="1330.2617826068135" y2="1.35" stroke-width="1" stroke-dasharray="none" stroke="blue"/>
<line x1="1329.0493470415154" y1="-1.3499999999999999" x2="1330.2617826068135" y2="-0.6500000000000001" stroke-width="1" stroke-dasharray="none" stroke="blue"/>
<line x1="1356.9069650669912" y1="0.6500000000000001" x2="1358.1194006322896" y2="1.35" stroke-width="1" stroke-dasharray="1" stroke="blue"/>
<line x1="1356.9069650669912" y1="-1.3499999999999999" x2="1358.1194006322896" y2="-0.6500000000000001" stroke-width="1" stroke-dasharray="none" stroke="blue"/>
<line x1="1329.0493470415154" y1="0.6500000000000001" x2="1356.9069650669912" y2="0.6500000000000001" stroke-width="1" stroke-dasharray="1" stroke="blue"/>
<line x1="1330.2617826068135" y1="1.35" x2="1358.1194006322896" y2="1.35" stroke-width="1" stroke-dasharray="none" stroke="blue"/>
<line x1="1329.0493470415154" y1="-1.3499999999999999" x2="1356.9069650669912" y2="-1.3499999999999999" stroke-width="1" stroke-dasharray="none" stroke="blue"/>
<line x1="1330.2617826068135" y1="-0.6500000000000001" x2="1358.1194006322896" y2="-0.6500000000000001" stroke-width="1" stroke-dasharray="none" stroke="blue"/>
<line x1="1356.9069650669912" y1="-1.35" x2="1428.12458745971" y2="-9.45" stroke-width="1" stroke-dasharray="none" stroke="blue"/>
<line x1="1358.1194006322894" y1="1.3499999999999999" x2="1428.12458745971" y2="-9.45" stroke-width="1" stroke-dasharray="none" stroke="blue"/>
<text x="1398.8810629811662" y="61.8" font-family="arial" font-size="14px" text-anchor="middle" fill="black">maxpool2x2</text><text x="1398.8810629811662" y="75.8" font-family="arial" font-size="14px" text-anchor="middle" fill="black">stride (2, 2)</text><line x1="1432.3681119382538" y1="0.9750000000000002" x2="1432.3681119382538" y2="-2.025" stroke-width="1" stroke-dasharray="none" stroke="blue"/>
<line x1="1460.2257299637297" y1="0.9750000000000002" x2="1460.2257299637297" y2="-2.025" stroke-width="1" stroke-dasharray="1" stroke="blue"/>
<line x1="1434.186765286201" y1="2.025" x2="1434.186765286201" y2="-0.9750000000000002" stroke-width="1" stroke-dasharray="none" stroke="blue"/>
<line x1="1462.0443833116772" y1="2.025" x2="1462.0443833116772" y2="-0.9750000000000002" stroke-width="1" stroke-dasharray="none" stroke="blue"/>
<line x1="1432.3681119382538" y1="0.9750000000000002" x2="1434.186765286201" y2="2.025" stroke-width="1" stroke-dasharray="none" stroke="blue"/>
<line x1="1432.3681119382538" y1="-2.025" x2="1434.186765286201" y2="-0.9750000000000002" stroke-width="1" stroke-dasharray="none" stroke="blue"/>
<line x1="1460.2257299637297" y1="0.9750000000000002" x2="1462.0443833116772" y2="2.025" stroke-width="1" stroke-dasharray="1" stroke="blue"/>
<line x1="1460.2257299637297" y1="-2.025" x2="1462.0443833116772" y2="-0.9750000000000002" stroke-width="1" stroke-dasharray="none" stroke="blue"/>
<line x1="1432.3681119382538" y1="0.9750000000000002" x2="1460.2257299637297" y2="0.9750000000000002" stroke-width="1" stroke-dasharray="1" stroke="blue"/>
<line x1="1434.186765286201" y1="2.025" x2="1462.0443833116772" y2="2.025" stroke-width="1" stroke-dasharray="none" stroke="blue"/>
<line x1="1432.3681119382538" y1="-2.025" x2="1460.2257299637297" y2="-2.025" stroke-width="1" stroke-dasharray="none" stroke="blue"/>
<line x1="1434.186765286201" y1="-0.9750000000000002" x2="1462.0443833116772" y2="-0.9750000000000002" stroke-width="1" stroke-dasharray="none" stroke="blue"/>
<line x1="1460.2257299637297" y1="-2.025" x2="1522.9563033993609" y2="-9.45" stroke-width="1" stroke-dasharray="none" stroke="blue"/>
<line x1="1462.044383311677" y1="2.025" x2="1522.9563033993609" y2="-9.45" stroke-width="1" stroke-dasharray="none" stroke="blue"/>
<text x="1493.712778920817" y="42.9" font-family="arial" font-size="14px" text-anchor="middle" fill="black">conv3x3, 512</text><text x="1493.712778920817" y="56.9" font-family="arial" font-size="14px" text-anchor="middle" fill="black">stride (1, 1)</text><line x1="1527.1998278779047" y1="0.9750000000000002" x2="1527.1998278779047" y2="-2.025" stroke-width="1" stroke-dasharray="none" stroke="blue"/>
<line x1="1569.4240810226372" y1="0.9750000000000002" x2="1569.4240810226372" y2="-2.025" stroke-width="1" stroke-dasharray="1" stroke="blue"/>
<line x1="1529.018481225852" y1="2.025" x2="1529.018481225852" y2="-0.9750000000000002" stroke-width="1" stroke-dasharray="none" stroke="blue"/>
<line x1="1571.2427343705847" y1="2.025" x2="1571.2427343705847" y2="-0.9750000000000002" stroke-width="1" stroke-dasharray="none" stroke="blue"/>
<line x1="1527.1998278779047" y1="0.9750000000000002" x2="1529.018481225852" y2="2.025" stroke-width="1" stroke-dasharray="none" stroke="blue"/>
<line x1="1527.1998278779047" y1="-2.025" x2="1529.018481225852" y2="-0.9750000000000002" stroke-width="1" stroke-dasharray="none" stroke="blue"/>
<line x1="1569.4240810226372" y1="0.9750000000000002" x2="1571.2427343705847" y2="2.025" stroke-width="1" stroke-dasharray="1" stroke="blue"/>
<line x1="1569.4240810226372" y1="-2.025" x2="1571.2427343705847" y2="-0.9750000000000002" stroke-width="1" stroke-dasharray="none" stroke="blue"/>
<line x1="1527.1998278779047" y1="0.9750000000000002" x2="1569.4240810226372" y2="0.9750000000000002" stroke-width="1" stroke-dasharray="1" stroke="blue"/>
<line x1="1529.018481225852" y1="2.025" x2="1571.2427343705847" y2="2.025" stroke-width="1" stroke-dasharray="none" stroke="blue"/>
<line x1="1527.1998278779047" y1="-2.025" x2="1569.4240810226372" y2="-2.025" stroke-width="1" stroke-dasharray="none" stroke="blue"/>
<line x1="1529.018481225852" y1="-0.9750000000000002" x2="1571.2427343705847" y2="-0.9750000000000002" stroke-width="1" stroke-dasharray="none" stroke="blue"/>
<line x1="1569.4240810226372" y1="-2.025" x2="1632.1546544582684" y2="-9.45" stroke-width="1" stroke-dasharray="none" stroke="blue"/>
<line x1="1571.2427343705845" y1="2.025" x2="1632.1546544582684" y2="-9.45" stroke-width="1" stroke-dasharray="none" stroke="blue"/>
<text x="1602.9111299797246" y="42.9" font-family="arial" font-size="14px" text-anchor="middle" fill="black">conv3x3, 512</text><text x="1602.9111299797246" y="56.9" font-family="arial" font-size="14px" text-anchor="middle" fill="black">stride (1, 1)</text><line x1="1636.3981789368122" y1="0.9750000000000002" x2="1636.3981789368122" y2="-2.025" stroke-width="1" stroke-dasharray="none" stroke="blue"/>
<line x1="1678.6224320815447" y1="0.9750000000000002" x2="1678.6224320815447" y2="-2.025" stroke-width="1" stroke-dasharray="1" stroke="blue"/>
<line x1="1638.2168322847594" y1="2.025" x2="1638.2168322847594" y2="-0.9750000000000002" stroke-width="1" stroke-dasharray="none" stroke="blue"/>
<line x1="1680.4410854294922" y1="2.025" x2="1680.4410854294922" y2="-0.9750000000000002" stroke-width="1" stroke-dasharray="none" stroke="blue"/>
<line x1="1636.3981789368122" y1="0.9750000000000002" x2="1638.2168322847594" y2="2.025" stroke-width="1" stroke-dasharray="none" stroke="blue"/>
<line x1="1636.3981789368122" y1="-2.025" x2="1638.2168322847594" y2="-0.9750000000000002" stroke-width="1" stroke-dasharray="none" stroke="blue"/>
<line x1="1678.6224320815447" y1="0.9750000000000002" x2="1680.4410854294922" y2="2.025" stroke-width="1" stroke-dasharray="1" stroke="blue"/>
<line x1="1678.6224320815447" y1="-2.025" x2="1680.4410854294922" y2="-0.9750000000000002" stroke-width="1" stroke-dasharray="none" stroke="blue"/>
<line x1="1636.3981789368122" y1="0.9750000000000002" x2="1678.6224320815447" y2="0.9750000000000002" stroke-width="1" stroke-dasharray="1" stroke="blue"/>
<line x1="1638.2168322847594" y1="2.025" x2="1680.4410854294922" y2="2.025" stroke-width="1" stroke-dasharray="none" stroke="blue"/>
<line x1="1636.3981789368122" y1="-2.025" x2="1678.6224320815447" y2="-2.025" stroke-width="1" stroke-dasharray="none" stroke="blue"/>
<line x1="1638.2168322847594" y1="-0.9750000000000002" x2="1680.4410854294922" y2="-0.9750000000000002" stroke-width="1" stroke-dasharray="none" stroke="blue"/>
<line x1="1678.6224320815447" y1="-2.025" x2="1741.353005517176" y2="-9.45" stroke-width="1" stroke-dasharray="none" stroke="blue"/>
<line x1="1680.441085429492" y1="2.025" x2="1741.353005517176" y2="-9.45" stroke-width="1" stroke-dasharray="none" stroke="blue"/>
<text x="1712.109481038632" y="42.9" font-family="arial" font-size="14px" text-anchor="middle" fill="black">conv3x3, 512</text><text x="1712.109481038632" y="56.9" font-family="arial" font-size="14px" text-anchor="middle" fill="black">stride (1, 1)</text><line x1="1745.5965299957197" y1="0.6500000000000001" x2="1745.5965299957197" y2="-1.3499999999999999" stroke-width="1" stroke-dasharray="none" stroke="blue"/>
<line x1="1787.8207831404522" y1="0.6500000000000001" x2="1787.8207831404522" y2="-1.3499999999999999" stroke-width="1" stroke-dasharray="1" stroke="blue"/>
<line x1="1746.8089655610179" y1="1.35" x2="1746.8089655610179" y2="-0.6500000000000001" stroke-width="1" stroke-dasharray="none" stroke="blue"/>
<line x1="1789.0332187057506" y1="1.35" x2="1789.0332187057506" y2="-0.6500000000000001" stroke-width="1" stroke-dasharray="none" stroke="blue"/>
<line x1="1745.5965299957197" y1="0.6500000000000001" x2="1746.8089655610179" y2="1.35" stroke-width="1" stroke-dasharray="none" stroke="blue"/>
<line x1="1745.5965299957197" y1="-1.3499999999999999" x2="1746.8089655610179" y2="-0.6500000000000001" stroke-width="1" stroke-dasharray="none" stroke="blue"/>
<line x1="1787.8207831404522" y1="0.6500000000000001" x2="1789.0332187057506" y2="1.35" stroke-width="1" stroke-dasharray="1" stroke="blue"/>
<line x1="1787.8207831404522" y1="-1.3499999999999999" x2="1789.0332187057506" y2="-0.6500000000000001" stroke-width="1" stroke-dasharray="none" stroke="blue"/>
<line x1="1745.5965299957197" y1="0.6500000000000001" x2="1787.8207831404522" y2="0.6500000000000001" stroke-width="1" stroke-dasharray="1" stroke="blue"/>
<line x1="1746.8089655610179" y1="1.35" x2="1789.0332187057506" y2="1.35" stroke-width="1" stroke-dasharray="none" stroke="blue"/>
<line x1="1745.5965299957197" y1="-1.3499999999999999" x2="1787.8207831404522" y2="-1.3499999999999999" stroke-width="1" stroke-dasharray="none" stroke="blue"/>
<line x1="1746.8089655610179" y1="-0.6500000000000001" x2="1789.0332187057506" y2="-0.6500000000000001" stroke-width="1" stroke-dasharray="none" stroke="blue"/>
<line x1="1787.8207831404522" y1="-1.35" x2="1848.4295943368115" y2="-4.725" stroke-width="1" stroke-dasharray="none" stroke="blue"/>
<line x1="1789.0332187057504" y1="1.3499999999999999" x2="1848.4295943368115" y2="-4.725" stroke-width="1" stroke-dasharray="none" stroke="blue"/>
<text x="1821.3078320975396" y="42.9" font-family="arial" font-size="14px" text-anchor="middle" fill="black">maxpool2x2</text><text x="1821.3078320975396" y="56.9" font-family="arial" font-size="14px" text-anchor="middle" fill="black">stride (2, 2)</text><line x1="1850.5513565760834" y1="0.9750000000000002" x2="1850.5513565760834" y2="-2.025" stroke-width="1" stroke-dasharray="none" stroke="blue"/>
<line x1="1892.775609720816" y1="0.9750000000000002" x2="1892.775609720816" y2="-2.025" stroke-width="1" stroke-dasharray="1" stroke="blue"/>
<line x1="1852.3700099240307" y1="2.025" x2="1852.3700099240307" y2="-0.9750000000000002" stroke-width="1" stroke-dasharray="none" stroke="blue"/>
<line x1="1894.5942630687634" y1="2.025" x2="1894.5942630687634" y2="-0.9750000000000002" stroke-width="1" stroke-dasharray="none" stroke="blue"/>
<line x1="1850.5513565760834" y1="0.9750000000000002" x2="1852.3700099240307" y2="2.025" stroke-width="1" stroke-dasharray="none" stroke="blue"/>
<line x1="1850.5513565760834" y1="-2.025" x2="1852.3700099240307" y2="-0.9750000000000002" stroke-width="1" stroke-dasharray="none" stroke="blue"/>
<line x1="1892.775609720816" y1="0.9750000000000002" x2="1894.5942630687634" y2="2.025" stroke-width="1" stroke-dasharray="1" stroke="blue"/>
<line x1="1892.775609720816" y1="-2.025" x2="1894.5942630687634" y2="-0.9750000000000002" stroke-width="1" stroke-dasharray="none" stroke="blue"/>
<line x1="1850.5513565760834" y1="0.9750000000000002" x2="1892.775609720816" y2="0.9750000000000002" stroke-width="1" stroke-dasharray="1" stroke="blue"/>
<line x1="1852.3700099240307" y1="2.025" x2="1894.5942630687634" y2="2.025" stroke-width="1" stroke-dasharray="none" stroke="blue"/>
<line x1="1850.5513565760834" y1="-2.025" x2="1892.775609720816" y2="-2.025" stroke-width="1" stroke-dasharray="none" stroke="blue"/>
<line x1="1852.3700099240307" y1="-0.9750000000000002" x2="1894.5942630687634" y2="-0.9750000000000002" stroke-width="1" stroke-dasharray="none" stroke="blue"/>
<line x1="1892.775609720816" y1="-2.025" x2="1949.1408964386317" y2="-4.725" stroke-width="1" stroke-dasharray="none" stroke="blue"/>
<line x1="1894.5942630687632" y1="2.025" x2="1949.1408964386317" y2="-4.725" stroke-width="1" stroke-dasharray="none" stroke="blue"/>
<text x="1922.0191341993598" y="33.45" font-family="arial" font-size="14px" text-anchor="middle" fill="black">conv3x3, 512</text><text x="1922.0191341993598" y="47.45" font-family="arial" font-size="14px" text-anchor="middle" fill="black">stride (1, 1)</text><line x1="1951.2626586779036" y1="0.9750000000000002" x2="1951.2626586779036" y2="-2.025" stroke-width="1" stroke-dasharray="none" stroke="blue"/>
<line x1="1993.486911822636" y1="0.9750000000000002" x2="1993.486911822636" y2="-2.025" stroke-width="1" stroke-dasharray="1" stroke="blue"/>
<line x1="1953.0813120258508" y1="2.025" x2="1953.0813120258508" y2="-0.9750000000000002" stroke-width="1" stroke-dasharray="none" stroke="blue"/>
<line x1="1995.3055651705836" y1="2.025" x2="1995.3055651705836" y2="-0.9750000000000002" stroke-width="1" stroke-dasharray="none" stroke="blue"/>
<line x1="1951.2626586779036" y1="0.9750000000000002" x2="1953.0813120258508" y2="2.025" stroke-width="1" stroke-dasharray="none" stroke="blue"/>
<line x1="1951.2626586779036" y1="-2.025" x2="1953.0813120258508" y2="-0.9750000000000002" stroke-width="1" stroke-dasharray="none" stroke="blue"/>
<line x1="1993.486911822636" y1="0.9750000000000002" x2="1995.3055651705836" y2="2.025" stroke-width="1" stroke-dasharray="1" stroke="blue"/>
<line x1="1993.486911822636" y1="-2.025" x2="1995.3055651705836" y2="-0.9750000000000002" stroke-width="1" stroke-dasharray="none" stroke="blue"/>
<line x1="1951.2626586779036" y1="0.9750000000000002" x2="1993.486911822636" y2="0.9750000000000002" stroke-width="1" stroke-dasharray="1" stroke="blue"/>
<line x1="1953.0813120258508" y1="2.025" x2="1995.3055651705836" y2="2.025" stroke-width="1" stroke-dasharray="none" stroke="blue"/>
<line x1="1951.2626586779036" y1="-2.025" x2="1993.486911822636" y2="-2.025" stroke-width="1" stroke-dasharray="none" stroke="blue"/>
<line x1="1953.0813120258508" y1="-0.9750000000000002" x2="1995.3055651705836" y2="-0.9750000000000002" stroke-width="1" stroke-dasharray="none" stroke="blue"/>
<line x1="1993.486911822636" y1="-2.025" x2="2049.852198540452" y2="-4.725" stroke-width="1" stroke-dasharray="none" stroke="blue"/>
<line x1="1995.3055651705833" y1="2.025" x2="2049.852198540452" y2="-4.725" stroke-width="1" stroke-dasharray="none" stroke="blue"/>
<text x="2022.73043630118" y="33.45" font-family="arial" font-size="14px" text-anchor="middle" fill="black">conv3x3, 512</text><text x="2022.73043630118" y="47.45" font-family="arial" font-size="14px" text-anchor="middle" fill="black">stride (1, 1)</text><line x1="2051.9739607797237" y1="0.9750000000000002" x2="2051.9739607797237" y2="-2.025" stroke-width="1" stroke-dasharray="none" stroke="blue"/>
<line x1="2094.1982139244565" y1="0.9750000000000002" x2="2094.1982139244565" y2="-2.025" stroke-width="1" stroke-dasharray="1" stroke="blue"/>
<line x1="2053.792614127671" y1="2.025" x2="2053.792614127671" y2="-0.9750000000000002" stroke-width="1" stroke-dasharray="none" stroke="blue"/>
<line x1="2096.0168672724035" y1="2.025" x2="2096.0168672724035" y2="-0.9750000000000002" stroke-width="1" stroke-dasharray="none" stroke="blue"/>
<line x1="2051.9739607797237" y1="0.9750000000000002" x2="2053.792614127671" y2="2.025" stroke-width="1" stroke-dasharray="none" stroke="blue"/>
<line x1="2051.9739607797237" y1="-2.025" x2="2053.792614127671" y2="-0.9750000000000002" stroke-width="1" stroke-dasharray="none" stroke="blue"/>
<line x1="2094.1982139244565" y1="0.9750000000000002" x2="2096.0168672724035" y2="2.025" stroke-width="1" stroke-dasharray="1" stroke="blue"/>
<line x1="2094.1982139244565" y1="-2.025" x2="2096.0168672724035" y2="-0.9750000000000002" stroke-width="1" stroke-dasharray="none" stroke="blue"/>
<line x1="2051.9739607797237" y1="0.9750000000000002" x2="2094.1982139244565" y2="0.9750000000000002" stroke-width="1" stroke-dasharray="1" stroke="blue"/>
<line x1="2053.792614127671" y1="2.025" x2="2096.0168672724035" y2="2.025" stroke-width="1" stroke-dasharray="none" stroke="blue"/>
<line x1="2051.9739607797237" y1="-2.025" x2="2094.1982139244565" y2="-2.025" stroke-width="1" stroke-dasharray="none" stroke="blue"/>
<line x1="2053.792614127671" y1="-0.9750000000000002" x2="2096.0168672724035" y2="-0.9750000000000002" stroke-width="1" stroke-dasharray="none" stroke="blue"/>
<line x1="2094.1982139244565" y1="-2.025" x2="2150.563500642272" y2="-4.725" stroke-width="1" stroke-dasharray="none" stroke="blue"/>
<line x1="2096.016867272404" y1="2.025" x2="2150.563500642272" y2="-4.725" stroke-width="1" stroke-dasharray="none" stroke="blue"/>
<text x="2123.4417384030003" y="33.45" font-family="arial" font-size="14px" text-anchor="middle" fill="black">conv3x3, 512</text><text x="2123.4417384030003" y="47.45" font-family="arial" font-size="14px" text-anchor="middle" fill="black">stride (1, 1)</text><line x1="2152.685262881544" y1="0.6500000000000001" x2="2152.685262881544" y2="-1.3499999999999999" stroke-width="1" stroke-dasharray="none" stroke="blue"/>
<line x1="2194.909516026277" y1="0.6500000000000001" x2="2194.909516026277" y2="-1.3499999999999999" stroke-width="1" stroke-dasharray="1" stroke="blue"/>
<line x1="2153.8976984468422" y1="1.35" x2="2153.8976984468422" y2="-0.6500000000000001" stroke-width="1" stroke-dasharray="none" stroke="blue"/>
<line x1="2196.121951591575" y1="1.35" x2="2196.121951591575" y2="-0.6500000000000001" stroke-width="1" stroke-dasharray="none" stroke="blue"/>
<line x1="2152.685262881544" y1="0.6500000000000001" x2="2153.8976984468422" y2="1.35" stroke-width="1" stroke-dasharray="none" stroke="blue"/>
<line x1="2152.685262881544" y1="-1.3499999999999999" x2="2153.8976984468422" y2="-0.6500000000000001" stroke-width="1" stroke-dasharray="none" stroke="blue"/>
<line x1="2194.909516026277" y1="0.6500000000000001" x2="2196.121951591575" y2="1.35" stroke-width="1" stroke-dasharray="1" stroke="blue"/>
<line x1="2194.909516026277" y1="-1.3499999999999999" x2="2196.121951591575" y2="-0.6500000000000001" stroke-width="1" stroke-dasharray="none" stroke="blue"/>
<line x1="2152.685262881544" y1="0.6500000000000001" x2="2194.909516026277" y2="0.6500000000000001" stroke-width="1" stroke-dasharray="1" stroke="blue"/>
<line x1="2153.8976984468422" y1="1.35" x2="2196.121951591575" y2="1.35" stroke-width="1" stroke-dasharray="none" stroke="blue"/>
<line x1="2152.685262881544" y1="-1.3499999999999999" x2="2194.909516026277" y2="-1.3499999999999999" stroke-width="1" stroke-dasharray="none" stroke="blue"/>
<line x1="2153.8976984468422" y1="-0.6500000000000001" x2="2196.121951591575" y2="-0.6500000000000001" stroke-width="1" stroke-dasharray="none" stroke="blue"/>
<line x1="2194.909516026277" y1="-1.35" x2="2250.2139216244564" y2="-2.3625" stroke-width="1" stroke-dasharray="none" stroke="blue"/>
<line x1="2196.121951591575" y1="1.3499999999999999" x2="2250.2139216244564" y2="-2.3625" stroke-width="1" stroke-dasharray="none" stroke="blue"/>
<text x="2224.1530405048206" y="33.45" font-family="arial" font-size="14px" text-anchor="middle" fill="black">maxpool2x2</text><text x="2224.1530405048206" y="47.45" font-family="arial" font-size="14px" text-anchor="middle" fill="black">stride (2, 2)</text><text x="2320.620818128097" y="242.0969684577976" font-family="arial" font-size="14px" text-anchor="middle" fill="black">flatten</text><line x1="2349.620818128097" y1="-218.0969684577976" x2="2399.620818128097" y2="-36.758347359905116" stroke-width="1" stroke-dasharray="2" stroke="blue"/>
<line x1="2349.620818128097" y1="218.0969684577976" x2="2399.620818128097" y2="-36.758347359905116" stroke-width="1" stroke-dasharray="2" stroke="blue"/>
<text x="2374.620818128097" y="242.0969684577976" font-family="arial" font-size="14px" text-anchor="middle" fill="black">dense</text><line x1="2403.620818128097" y1="-73.51669471981023" x2="2453.620818128097" y2="-36.758347359905116" stroke-width="1" stroke-dasharray="2" stroke="blue"/>
<line x1="2403.620818128097" y1="73.51669471981023" x2="2453.620818128097" y2="-36.758347359905116" stroke-width="1" stroke-dasharray="2" stroke="blue"/>
<text x="2428.620818128097" y="97.51669471981023" font-family="arial" font-size="14px" text-anchor="middle" fill="black">dense</text><line x1="2457.620818128097" y1="-73.51669471981023" x2="2507.620818128097" y2="-15.773933612004829" stroke-width="1" stroke-dasharray="2" stroke="blue"/>
<line x1="2457.620818128097" y1="73.51669471981023" x2="2507.620818128097" y2="-15.773933612004829" stroke-width="1" stroke-dasharray="2" stroke="blue"/>
<text x="2482.620818128097" y="97.51669471981023" font-family="arial" font-size="14px" text-anchor="middle" fill="black">dense</text></svg>